<svg width="373" height="318" xmlns="http://www.w3.org/2000/svg">

 <g>
  <title>background</title>
  <rect fill="none" id="canvas_background" height="402" width="582" y="-1" x="-1"/>
 </g>
 <g>
  <title>Layer 1</title>
  <g id="svg_1">
   <path id="svg_2" opacity="0.722" d="m171.5,26.5c0,-0.3333 0,-0.6667 0,-1c6.117,0.0152 12.117,0.6818 18,2c1,0.6667 2,1.3333 3,2c-7.014,-0.9067 -14.014,-1.9067 -21,-3z" fill="#ffffff"/>
  </g>
  <g id="svg_3">
   <path id="svg_4" d="m171.5,25.5c6.986,1.0933 13.986,2.0933 21,3c5,0.6667 10,1.3333 15,2c3.068,0.0467 6.068,0.5467 9,1.5c2.38,3.2576 4.88,6.4242 7.5,9.5c1.429,7.2194 1.929,14.5528 1.5,22c9.307,1.1865 18.64,2.1865 28,3c-0.03,10.5292 0.637,20.8625 2,31c1.009,18.174 2.342,36.174 4,54c0,1 0,2 0,3c-0.072,10.199 0.595,20.199 2,30c0.486,7.658 0.82,15.325 1,23c0,3 0,6 0,9c-42.333,0 -84.667,0 -127,0c0.313,-3.542 -0.021,-6.875 -1,-10c-0.333,-4.667 -0.667,-9.333 -1,-14c-0.391,-14.665 -0.725,-29.332 -1,-44c0.166,-9.339 0,-18.673 -0.5,-28c-0.181,-3.195 -0.681,-6.195 -1.5,-9c-0.43,-20.0109 -1.097,-40.0109 -2,-60c1.333,0 2.667,0 4,0c6.779,1.4833 13.779,2.15 21,2c-0.166,-5.6764 0.001,-11.3431 0.5,-17c2.833,-2.8333 5.667,-5.6667 8.5,-8.5c0.832,-0.6877 1.498,-0.521 2,0.5c-1.021,1.688 -2.355,3.0213 -4,4c-0.992,7.4818 -1.325,15.1484 -1,23c1.291,0.2373 2.291,-0.096 3,-1c-0.325,-7.1866 0.009,-14.1866 1,-21c3.667,-1.6667 6.333,-4.3333 8,-8zm3,17c2.891,0.9025 5.891,1.2359 9,1c7.341,2.4337 15.008,3.7671 23,4c0,4 0,8 0,12c-1,0 -2,0 -3,0c-8.938,-1.4087 -17.938,-2.4087 -27,-3c-1.848,-4.3536 -2.515,-9.0203 -2,-14z" fill="#ffffff"/>
  </g>
  <g id="svg_5">
   <path id="svg_6" opacity="0.416" d="m189.5,27.5c5.095,0.2615 10.095,0.9282 15,2c1,0.6667 2,1.3333 3,2c-5,-0.6667 -10,-1.3333 -15,-2c-1,-0.6667 -2,-1.3333 -3,-2z" fill="#ffffff"/>
  </g>
  <g id="svg_7">
   <path id="svg_8" opacity="0.239" d="m171.5,25.5c0,0.3333 0,0.6667 0,1c-3,2.3333 -5.667,5 -8,8c-0.991,6.8134 -1.325,13.8134 -1,21c-1.963,-6.9238 -2.63,-14.2572 -2,-22c1.645,-0.9787 2.979,-2.312 4,-4c-0.502,-1.021 -1.168,-1.1877 -2,-0.5c-2.833,2.8333 -5.667,5.6667 -8.5,8.5c-0.499,5.6569 -0.666,11.3236 -0.5,17c-7.221,0.15 -14.221,-0.5167 -21,-2c2.333,0 4.667,0 7,0c4.369,-0.0328 8.702,0.3005 13,1c-3.526,-16.3293 2.807,-25.6626 19,-28z" fill="#ffffff"/>
  </g>
  <g id="svg_9">
   <path id="svg_10" opacity="0.894" d="m171.5,26.5c-1.667,3.6667 -4.333,6.3333 -8,8c2.333,-3 5,-5.6667 8,-8z" fill="#ffffff"/>
  </g>
  <g id="svg_11">
   <path id="svg_12" opacity="0.766" d="m160.5,33.5c-0.63,7.7428 0.037,15.0762 2,22c-0.709,0.904 -1.709,1.2373 -3,1c-0.325,-7.8516 0.008,-15.5182 1,-23z" fill="#ffffff"/>
  </g>
  <g id="svg_13">
   <path id="svg_14" opacity="0.407" d="m192.5,40.5c-1.699,-0.1602 -3.366,0.0065 -5,0.5c1.237,0.2321 2.237,0.7321 3,1.5c-4.511,-0.5255 -9.011,-1.1922 -13.5,-2c-0.833,0.3333 -1.667,0.6667 -2.5,1c0.333,0.3333 0.667,0.6667 1,1c3.14,0.5894 6.14,1.2561 9,2c-0.333,0 -0.667,0 -1,0c-3.109,0.2359 -6.109,-0.0975 -9,-1c-1.936,4.2147 -2.603,8.8814 -2,14c-0.991,-6.479 -1.324,-13.1457 -1,-20c7.231,0.3473 14.231,1.3473 21,3z" fill="#ffffff"/>
  </g>
  <g id="svg_15">
   <path id="svg_16" d="m195.5,40.5c4.914,-0.1382 9.581,0.5285 14,2c-4.914,0.1382 -9.581,-0.5285 -14,-2z" fill="#ffffff"/>
  </g>
  <g id="svg_17">
   <path id="svg_18" d="m192.5,40.5c1,0 2,0 3,0c4.419,1.4715 9.086,2.1382 14,2c1.879,0.8414 3.879,1.1747 6,1c0.172,0.9916 -0.162,1.6583 -1,2c-8.022,-0.8361 -16.022,-1.8361 -24,-3c-0.763,-0.7679 -1.763,-1.2679 -3,-1.5c1.634,-0.4935 3.301,-0.6602 5,-0.5z" fill="#ffffff"/>
  </g>
  <g id="svg_19">
   <path id="svg_20" opacity="0.021" d="m174.5,43.5c-0.515,4.9797 0.152,9.6464 2,14c-0.667,0 -1.333,0 -2,0c-0.667,0 -1.333,0 -2,0c-0.603,-5.1186 0.064,-9.7853 2,-14z" fill="#ffffff"/>
  </g>
  <g id="svg_21">
   <path id="svg_22" opacity="0.263" d="m204.5,29.5c4.034,0.1721 8.034,0.6721 12,1.5c2.833,3.5 5.667,7 8.5,10.5c1.255,6.5594 1.922,13.226 2,20c0.5,0.5 1,1 1.5,1.5c6.371,0.726 12.705,1.5593 19,2.5c2,0.6667 4,1.3333 6,2c-9.36,-0.8135 -18.693,-1.8135 -28,-3c0.429,-7.4472 -0.071,-14.7806 -1.5,-22c-2.62,-3.0758 -5.12,-6.2424 -7.5,-9.5c-2.932,-0.9533 -5.932,-1.4533 -9,-1.5c-1,-0.6667 -2,-1.3333 -3,-2z" fill="#ffffff"/>
  </g>
  <g id="svg_23">
   <path id="svg_24" opacity="0.102" d="m183.5,44.5c0.333,0 0.667,0 1,0c7.642,1.1975 15.308,2.1975 23,3c0,4.6667 0,9.3333 0,14c-1.333,0 -2.667,0 -4,0c0,-0.3333 0,-0.6667 0,-1c1,0 2,0 3,0c0,-4 0,-8 0,-12c-7.992,-0.2329 -15.659,-1.5663 -23,-4z" fill="#ffffff"/>
  </g>
  <g id="svg_25">
   <path id="svg_26" opacity="0.025" d="m139.5,52.5c-2.333,0 -4.667,0 -7,0c-1.333,0 -2.667,0 -4,0c-0.667,1.3333 -1.333,2.6667 -2,4c-2.667,0 -5.333,0 -8,0c-0.333,0 -0.667,0 -1,0c2.488,-1.8878 5.488,-2.5545 9,-2c-0.353,-2.1348 0.48,-3.4681 2.5,-4c3.654,0.5624 7.154,1.229 10.5,2z" fill="#ffffff"/>
  </g>
  <g id="svg_27">
   <path id="svg_28" opacity="0.384" d="m215.5,43.5c1.317,6.1783 1.317,12.5117 0,19c-0.995,-5.6278 -1.329,-11.2945 -1,-17c0.838,-0.3417 1.172,-1.0084 1,-2z" fill="#ffffff"/>
  </g>
  <g id="svg_29">
   <path id="svg_30" opacity="0.649" d="m207.5,47.5c0.987,4.8054 1.321,9.8054 1,15c-1.915,0.2845 -3.581,-0.0489 -5,-1c1.333,0 2.667,0 4,0c0,-4.6667 0,-9.3333 0,-14z" fill="#ffffff"/>
  </g>
  <g id="svg_31">
   <path id="svg_32" d="m118.5,56.5c2.667,0 5.333,0 8,0c1.148,41.5115 2.815,82.845 5,124c0,12.333 0,24.667 0,37c-7.333,0 -14.667,0 -22,0c0.333,-11.333 0.667,-22.667 1,-34c0,-1.333 0,-2.667 0,-4c0.802,-1.452 1.302,-3.118 1.5,-5c0.5,-6.992 0.666,-13.992 0.5,-21c0.047,-11.855 0.714,-23.522 2,-35c1.013,-7.489 1.68,-15.156 2,-23c0,-5.3333 0,-10.6667 0,-16c0,-0.3333 0,-0.6667 0,-1c1.038,-7.1531 1.704,-14.4864 2,-22z" fill="#ffffff"/>
  </g>
  <g id="svg_33">
   <path id="svg_34" opacity="0.78" d="m174.5,57.5c0.667,0 1.333,0 2,0c9.062,0.5913 18.062,1.5913 27,3c0,0.3333 0,0.6667 0,1c-8.685,-0.576 -17.352,-1.4093 -26,-2.5c-1.237,-0.2321 -2.237,-0.7321 -3,-1.5z" fill="#ffffff"/>
  </g>
  <g id="svg_35">
   <path id="svg_36" opacity="0.027" d="m247.5,65.5c2.888,-0.5102 5.221,0.1565 7,2c-0.333,0 -0.667,0 -1,0c-2,-0.6667 -4,-1.3333 -6,-2z" fill="#ffffff"/>
  </g>
  <g id="svg_37">
   <path id="svg_38" opacity="0.337" d="m117.5,56.5c0.333,0 0.667,0 1,0c-0.296,7.5136 -0.962,14.8469 -2,22c-0.123,-7.0293 0.21,-14.0293 1,-21c0,-0.3333 0,-0.6667 0,-1z" fill="#ffffff"/>
  </g>
  <g id="svg_39">
   <path id="svg_40" opacity="0.033" d="m117.5,57.5c-0.79,6.9707 -1.123,13.9707 -1,21c0,0.3333 0,0.6667 0,1c-1.013,7.4891 -1.68,15.1558 -2,23c0,2.667 0,5.333 0,8c-0.333,0 -0.667,0 -1,0c0.313,-14.5134 0.98,-29.0134 2,-43.5c0.015,-3.5758 0.682,-6.7425 2,-9.5z" fill="#ffffff"/>
  </g>
  <g id="svg_41">
   <path id="svg_42" opacity="0.82" d="m253.5,67.5c0.333,0 0.667,0 1,0c0.987,4.8054 1.321,9.8054 1,15c0,5.3333 0,10.6667 0,16c-1.363,-10.1375 -2.03,-20.4708 -2,-31z" fill="#ffffff"/>
  </g>
  <g id="svg_43">
   <path id="svg_44" opacity="0.573" d="m116.5,79.5c0,5.3333 0,10.6667 0,16c-0.667,2.3333 -1.333,4.667 -2,7c0.32,-7.8442 0.987,-15.5109 2,-23z" fill="#ffffff"/>
  </g>
  <g id="svg_45">
   <path id="svg_46" opacity="0.361" d="m255.5,82.5c1.013,7.4891 1.68,15.1558 2,23c-0.667,-2.333 -1.333,-4.667 -2,-7c0,-5.3333 0,-10.6667 0,-16z" fill="#ffffff"/>
  </g>
  <g id="svg_47">
   <path id="svg_48" opacity="0.549" d="m116.5,95.5c-0.32,7.844 -0.987,15.511 -2,23c0,-2.667 0,-5.333 0,-8c0,-2.667 0,-5.333 0,-8c0.667,-2.333 1.333,-4.6667 2,-7z" fill="#ffffff"/>
  </g>
  <g id="svg_49">
   <path id="svg_50" opacity="0.467" d="m255.5,98.5c0.667,2.333 1.333,4.667 2,7c0.643,7.65 0.977,15.317 1,23c0.666,7.983 0.999,15.983 1,24c-1.658,-17.826 -2.991,-35.826 -4,-54z" fill="#ffffff"/>
  </g>
  <g id="svg_51">
   <path id="svg_52" opacity="0.836" d="m130.5,112.5c0.819,2.805 1.319,5.805 1.5,9c0.5,9.327 0.666,18.661 0.5,28c-1.289,-12.146 -1.955,-24.479 -2,-37z" fill="#ffffff"/>
  </g>
  <g id="svg_53">
   <path id="svg_54" opacity="0.327" d="m128.5,52.5c0.903,19.9891 1.57,39.9891 2,60c0.045,12.521 0.711,24.854 2,37c0.275,14.668 0.609,29.335 1,44c-0.828,-5.819 -1.328,-11.819 -1.5,-18c-0.494,1.634 -0.66,3.301 -0.5,5c-2.185,-41.155 -3.852,-82.4885 -5,-124c0.667,-1.3333 1.333,-2.6667 2,-4z" fill="#ffffff"/>
  </g>
  <g id="svg_55">
   <path id="svg_56" opacity="0.028" d="m258.5,128.5c1.488,5.766 2.322,11.766 2.5,18c1.333,18.66 2.5,37.327 3.5,56c-0.333,0 -0.667,0 -1,0c-0.202,-8.186 -0.869,-16.186 -2,-24c-0.249,-7.85 -0.916,-15.517 -2,-23c0,-1 0,-2 0,-3c-0.001,-8.017 -0.334,-16.017 -1,-24z" fill="#ffffff"/>
  </g>
  <g id="svg_57">
   <path id="svg_58" opacity="0.208" d="m113.5,110.5c0.333,0 0.667,0 1,0c0,2.667 0,5.333 0,8c-1.286,11.478 -1.953,23.145 -2,35c-1.572,8.449 -2.239,17.116 -2,26c0,1.333 0,2.667 0,4c-1.013,7.489 -1.68,15.156 -2,23c-0.333,0 -0.667,0 -1,0c1.657,-32.173 3.657,-64.173 6,-96z" fill="#ffffff"/>
  </g>
  <g id="svg_59">
   <path id="svg_60" opacity="0.894" d="m259.5,155.5c1.084,7.483 1.751,15.15 2,23c0,2.333 0,4.667 0,7c-1.405,-9.801 -2.072,-19.801 -2,-30z" fill="#ffffff"/>
  </g>
  <g id="svg_61">
   <path id="svg_62" opacity="0.741" d="m112.5,153.5c0.166,7.008 0,14.008 -0.5,21c-0.198,1.882 -0.698,3.548 -1.5,5c-0.239,-8.884 0.428,-17.551 2,-26z" fill="#ffffff"/>
  </g>
  <g id="svg_63">
   <path id="svg_64" opacity="0.757" d="m261.5,178.5c1.131,7.814 1.798,15.814 2,24c0,2 0,4 0,6c-0.333,0 -0.667,0 -1,0c-0.18,-7.675 -0.514,-15.342 -1,-23c0,-2.333 0,-4.667 0,-7z" fill="#ffffff"/>
  </g>
  <g id="svg_65">
   <path id="svg_66" opacity="0.8" d="m110.5,183.5c-0.333,11.333 -0.667,22.667 -1,34c7.333,0 14.667,0 22,0c-7.482,0.992 -15.148,1.325 -23,1c0,-4 0,-8 0,-12c0.32,-7.844 0.987,-15.511 2,-23z" fill="#ffffff"/>
  </g>
  <g id="svg_67">
   <path id="svg_68" opacity="0.295" d="m133.5,193.5c0.333,4.667 0.667,9.333 1,14c0,3.667 0,7.333 0,11c43,0 86,0 129,0c0,-3.333 0,-6.667 0,-10c0,-2 0,-4 0,-6c0.333,0 0.667,0 1,0c0.792,5.63 1.125,11.297 1,17c-53,0 -106,0 -159,0c0.7,-4.298 1.033,-8.631 1,-13c0.333,0 0.667,0 1,0c0,4 0,8 0,12c7.852,0.325 15.518,-0.008 23,-1c0,-12.333 0,-24.667 0,-37c-0.16,-1.699 0.006,-3.366 0.5,-5c0.172,6.181 0.672,12.181 1.5,18z" fill="#ffffff"/>
  </g>
  <g id="svg_69">
   <path id="svg_70" opacity="0.799" d="m134.5,207.5c0.979,3.125 1.313,6.458 1,10c42.333,0 84.667,0 127,0c0,-3 0,-6 0,-9c0.333,0 0.667,0 1,0c0,3.333 0,6.667 0,10c-43,0 -86,0 -129,0c0,-3.667 0,-7.333 0,-11z" fill="#ffffff"/>
  </g>
  <g id="svg_71">
   <path id="svg_72" opacity="0.02" d="m79.5,243.5c-2.8854,-0.306 -5.5521,0.027 -8,1c-1.3333,0 -2.6667,0 -4,0c1.9621,-1.517 4.2954,-2.184 7,-2c1.8693,0.007 3.536,0.34 5,1z" fill="#ffffff"/>
  </g>
  <g id="svg_73">
   <path id="svg_74" opacity="0.587" d="m138.5,244.5c0,0.333 0,0.667 0,1c-4.603,-0.883 -9.27,-1.217 -14,-1c1.962,-1.517 4.295,-2.184 7,-2c2.705,-0.184 5.038,0.483 7,2z" fill="#ffffff"/>
  </g>
  <g id="svg_75">
   <path id="svg_76" opacity="0.055" d="m150.5,244.5c1.068,-0.934 2.401,-1.268 4,-1c2,0 3,1 3,3c-1,-0.667 -2,-1.333 -3,-2c-1.333,0 -2.667,0 -4,0z" fill="#ffffff"/>
  </g>
  <g id="svg_77">
   <path id="svg_78" opacity="0.115" d="m107.5,243.5c0.315,3.871 -0.018,7.538 -1,11c-2.54,-3.228 -5.207,-6.395 -8,-9.5c-1.6341,-0.494 -3.3008,-0.66 -5,-0.5c0,6 0,12 0,18c1.3333,0 2.6667,0 4,0c0.6667,-3.333 1.3333,-6.667 2,-10c0.919,2.589 2.586,4.589 5,6c1.312,0.645 2.312,1.645 3,3c1.545,0.952 3.212,1.285 5,1c0.99,-6.145 1.323,-12.478 1,-19c0.991,6.479 1.324,13.146 1,20c-2.687,0.164 -5.354,-0.003 -8,-0.5c-2.167,-2.167 -4.333,-4.333 -6.5,-6.5c-0.4966,2.31 -0.6633,4.643 -0.5,7c-2.6667,0 -5.3333,0 -8,0c-0.0272,-6.686 -0.3605,-13.352 -1,-20c2.6411,-0.763 5.3078,-0.93 8,-0.5c2.872,2.537 5.372,5.37 7.5,8.5c0.183,-2.865 0.683,-5.531 1.5,-8z" fill="#ffffff"/>
  </g>
  <g id="svg_79">
   <path id="svg_80" opacity="0.094" d="m227.5,246.5c0.302,2.559 -0.032,4.893 -1,7c0.163,-2.357 -0.003,-4.69 -0.5,-7c-0.383,-0.556 -0.883,-0.889 -1.5,-1c-5.14,-0.988 -10.474,-1.321 -16,-1c0,-0.333 0,-0.667 0,-1c4.816,-1.15 9.816,-1.316 15,-0.5c1.824,0.66 3.157,1.827 4,3.5z" fill="#ffffff"/>
  </g>
  <g id="svg_81">
   <path id="svg_82" d="m67.5,244.5c1.3333,0 2.6667,0 4,0c4.6209,-0.507 8.9542,0.326 13,2.5c1.84,14.282 -4.16,18.782 -18,13.5c-4.2288,-5.61 -3.8955,-10.943 1,-16zm6,5c4.148,0.334 5.8147,2.667 5,7c-2.6667,1.333 -5.3333,1.333 -8,0c0,-2 0,-4 0,-6c1.291,0.237 2.291,-0.096 3,-1z" fill="#ffffff"/>
  </g>
  <g id="svg_83">
   <path id="svg_84" d="m106.5,254.5c0.06,0.543 0.393,0.876 1,1c0.989,-3.607 1.323,-7.274 1,-11c1.333,0 2.667,0 4,0c0,6 0,12 0,18c-1.788,0.285 -3.455,-0.048 -5,-1c-0.688,-1.355 -1.688,-2.355 -3,-3c-0.919,-2.589 -2.586,-4.589 -5,-6c-0.06,-0.543 -0.3933,-0.876 -1,-1c-0.9892,3.607 -1.3226,7.274 -1,11c-1.3333,0 -2.6667,0 -4,0c0,-6 0,-12 0,-18c1.6992,-0.16 3.3659,0.006 5,0.5c2.793,3.105 5.46,6.272 8,9.5z" fill="#ffffff"/>
  </g>
  <g id="svg_85">
   <path id="svg_86" opacity="0.518" d="m113.5,243.5c0.323,6.522 -0.01,12.855 -1,19c0,-6 0,-12 0,-18c-1.333,0 -2.667,0 -4,0c0.323,3.726 -0.011,7.393 -1,11c-0.607,-0.124 -0.94,-0.457 -1,-1c0.982,-3.462 1.315,-7.129 1,-11c2.111,-1.242 4.111,-1.242 6,0z" fill="#ffffff"/>
  </g>
  <g id="svg_87">
   <path id="svg_88" d="m168.5,244.5c1.333,0 2.667,0 4,0c0,5.667 0,11.333 0,17c-1,0 -2,0 -3,0c0,-3.667 0,-7.333 0,-11c-1,0 -2,0 -3,0c0,-1 0,-2 0,-3c-0.073,-1.527 0.594,-2.527 2,-3z" fill="#ffffff"/>
  </g>
  <g id="svg_89">
   <path id="svg_90" opacity="0.564" d="m173.5,243.5c0.323,6.522 -0.01,12.855 -1,19c0,-0.333 0,-0.667 0,-1c0,-5.667 0,-11.333 0,-17c-1.333,0 -2.667,0 -4,0c0,-0.333 0,-0.667 0,-1c1.667,-1.333 3.333,-1.333 5,0z" fill="#ffffff"/>
  </g>
  <g id="svg_91">
   <path id="svg_92" d="m224.5,245.5c0.617,0.111 1.117,0.444 1.5,1c0.497,2.31 0.663,4.643 0.5,7c-0.855,1.031 -1.522,2.197 -2,3.5c0.336,1.03 1.003,1.53 2,1.5c1.324,3.295 -0.009,4.628 -4,4c0.039,-2.589 -0.961,-4.589 -3,-6c-2.107,-0.968 -4.441,-1.302 -7,-1c-0.665,1.869 -1.331,3.869 -2,6c-0.995,-5.292 -1.328,-10.625 -1,-16c5,0 10,0 15,0z" fill="#ffffff"/>
  </g>
  <g id="svg_93">
   <path id="svg_94" opacity="0.091" d="m253.5,243.5c-6.19,-0.323 -12.19,0.01 -18,1c0,6 0,12 0,18c0,0.333 0,0.667 0,1c-1.32,-2.928 -1.986,-6.261 -2,-10c0.167,-3.333 0.333,-6.667 0.5,-10c6.599,-1.326 13.099,-1.326 19.5,0z" fill="#ffffff"/>
  </g>
  <g id="svg_95">
   <path id="svg_96" d="m236.5,244.5c5.333,0 10.667,0 16,0c0,1 0,2 0,3c-4.333,0 -8.667,0 -13,0c0,1.333 0,2.667 0,4c3.333,0 6.667,0 10,0c0,1 0,2 0,3c-3.333,0 -6.667,0 -10,0c0,1.333 0,2.667 0,4c4.184,0.666 8.518,1.333 13,2c-5.292,0.995 -10.625,1.328 -16,1c0,-5.667 0,-11.333 0,-17z" fill="#ffffff"/>
  </g>
  <g id="svg_97">
   <path id="svg_98" opacity="0.323" d="m267.5,245.5c-2.217,-0.869 -4.55,-1.202 -7,-1c0,6 0,12 0,18c-0.99,-6.145 -1.323,-12.478 -1,-19c3.418,-1.722 6.084,-1.056 8,2z" fill="#ffffff"/>
  </g>
  <g id="svg_99">
   <path id="svg_100" opacity="0.999" d="m292.5,243.5c0,2.333 0,4.667 0,7c3.826,-0.297 6.826,-2.13 9,-5.5c1.667,-0.667 3.333,-0.667 5,0c-2.014,2.677 -4.014,5.344 -6,8c2.18,2.684 4.18,5.517 6,8.5c-1.223,1.114 -2.556,1.281 -4,0.5c-2.117,-4.303 -5.45,-6.803 -10,-7.5c0,2.667 0,5.333 0,8c-1.667,0 -3.333,0 -5,0c-0.291,-6.423 0.042,-12.756 1,-19c1.333,-1.333 2.667,-1.333 4,0z" fill="#ffffff"/>
  </g>
  <g id="svg_101">
   <path id="svg_102" d="m316.5,244.5c4.346,-0.166 8.679,0.001 13,0.5c0.544,0.717 1.211,1.217 2,1.5c2.221,4.123 2.554,8.457 1,13c-7.135,4.612 -13.635,3.945 -19.5,-2c-1.461,-5.174 -0.294,-9.507 3.5,-13zm6,5c4.346,0.354 6.013,2.687 5,7c-2.667,1.333 -5.333,1.333 -8,0c0,-2 0,-4 0,-6c1.291,0.237 2.291,-0.096 3,-1z" fill="#ffffff"/>
  </g>
  <g id="svg_103">
   <path id="svg_104" opacity="0.66" d="m52.5,243.5c0.3333,0.667 0.6667,1.333 1,2c-4.953,-0.829 -9.953,-1.163 -15,-1c0,5.667 0,11.333 0,17c1,0 2,0 3,0c0,-1.333 0,-2.667 0,-4c3.3333,0 6.6667,0 10,0c-2.7869,0.977 -5.7869,1.31 -9,1c0,1.333 0,2.667 0,4c-1.6667,0 -3.3333,0 -5,0c0,-6.333 0,-12.667 0,-19c5.0999,-1.3 10.0999,-1.3 15,0z" fill="#ffffff"/>
  </g>
  <g id="svg_105">
   <path id="svg_106" opacity="0.855" d="m208.5,244.5c5.526,-0.321 10.86,0.012 16,1c-5,0 -10,0 -15,0c-0.328,5.375 0.005,10.708 1,16c0.669,-2.131 1.335,-4.131 2,-6c0,2.333 0,4.667 0,7c-1.333,0 -2.667,0 -4,0c0,-6 0,-12 0,-18z" fill="#ffffff"/>
  </g>
  <g id="svg_107">
   <path id="svg_108" opacity="0.373" d="m333.5,246.5c0,0.333 0,0.667 0,1c-0.667,-0.333 -1.333,-0.667 -2,-1c-0.789,-0.283 -1.456,-0.783 -2,-1.5c-4.321,-0.499 -8.654,-0.666 -13,-0.5c0.418,-0.722 1.084,-1.222 2,-1.5c3.333,-0.667 6.667,-0.667 10,0c2.381,0.223 4.047,1.39 5,3.5z" fill="#ffffff"/>
  </g>
  <g id="svg_109">
   <path id="svg_110" opacity="0.66" d="m78.5,248.5c-3.0701,-0.132 -6.0701,0.201 -9,1c0.1107,-0.617 0.444,-1.117 1,-1.5c2.867,-0.801 5.5336,-0.634 8,0.5z" fill="#ffffff"/>
  </g>
  <g id="svg_111">
   <path id="svg_112" opacity="0.659" d="m221.5,248.5c-2.667,0 -5.333,0 -8,0c0,1 0,2 0,3c-0.934,-1.068 -1.268,-2.401 -1,-4c3.213,-0.31 6.213,0.023 9,1z" fill="#ffffff"/>
  </g>
  <g id="svg_113">
   <path id="svg_114" opacity="0.653" d="m235.5,244.5c5.81,-0.99 11.81,-1.323 18,-1c0,1.667 0,3.333 0,5c-4.384,-0.326 -8.717,0.008 -13,1c3.268,0.987 6.602,1.32 10,1c0.268,1.599 -0.066,2.932 -1,4c0,-1 0,-2 0,-3c-3.333,0 -6.667,0 -10,0c0,-1.333 0,-2.667 0,-4c4.333,0 8.667,0 13,0c0,-1 0,-2 0,-3c-5.333,0 -10.667,0 -16,0c-0.333,0 -0.667,0 -1,0z" fill="#ffffff"/>
  </g>
  <g id="svg_115">
   <path id="svg_116" opacity="0.195" d="m253.5,243.5c0.961,1.765 1.295,3.765 1,6c-1.052,-0.149 -2.052,0.017 -3,0.5c0.284,1.956 0.284,4.123 0,6.5c-3.542,-0.313 -6.875,0.021 -10,1c-0.543,-0.06 -0.876,-0.393 -1,-1c3.142,-0.667 6.142,-1.334 9,-2c0.934,-1.068 1.268,-2.401 1,-4c-3.398,0.32 -6.732,-0.013 -10,-1c4.283,-0.992 8.616,-1.326 13,-1c0,-1.667 0,-3.333 0,-5z" fill="#ffffff"/>
  </g>
  <g id="svg_117">
   <path id="svg_118" opacity="0.239" d="m280.5,243.5c-1.599,-0.268 -2.932,0.066 -4,1c-0.666,3.189 -1.333,6.523 -2,10c-2.732,-2.727 -5.066,-5.727 -7,-9c1.963,1.46 3.796,3.127 5.5,5c0.186,-2.4 0.686,-4.734 1.5,-7c2.143,-1.254 4.143,-1.254 6,0z" fill="#ffffff"/>
  </g>
  <g id="svg_119">
   <path id="svg_120" opacity="0.118" d="m227.5,246.5c0.656,1.122 0.989,2.455 1,4c-0.206,2.836 -0.873,5.502 -2,8c-0.997,0.03 -1.664,-0.47 -2,-1.5c0.478,-1.303 1.145,-2.469 2,-3.5c0.968,-2.107 1.302,-4.441 1,-7z" fill="#ffffff"/>
  </g>
  <g id="svg_121">
   <path id="svg_122" opacity="0.009" d="m67.5,244.5c-4.8955,5.057 -5.2288,10.39 -1,16c0.3333,0.667 0.6667,1.333 1,2c-3.7039,-1.71 -5.7039,-4.71 -6,-9c0.3417,-2.367 0.8417,-4.7 1.5,-7c1.3297,-1.082 2.8297,-1.749 4.5,-2z" fill="#ffffff"/>
  </g>
  <g id="svg_123">
   <path id="svg_124" opacity="0.039" d="m168.5,243.5c0,0.333 0,0.667 0,1c-1.406,0.473 -2.073,1.473 -2,3c-1.432,1.827 -3.099,3.494 -5,5c-1.837,-1.676 -3.17,-3.676 -4,-6c1.645,0.979 2.979,2.312 4,4c1.361,-1.528 2.528,-3.195 3.5,-5c0.816,-1.323 1.983,-1.989 3.5,-2z" fill="#ffffff"/>
  </g>
  <g id="svg_125">
   <path id="svg_126" opacity="0.193" d="m221.5,248.5c0.904,0.709 1.237,1.709 1,3c-3,0 -6,0 -9,0c0,-1 0,-2 0,-3c2.667,0 5.333,0 8,0z" fill="#ffffff"/>
  </g>
  <g id="svg_127">
   <path id="svg_128" opacity="0.021" d="m78.5,248.5c1.5507,2.413 2.2174,5.079 2,8c-3.018,1.963 -6.3513,2.463 -10,1.5c-2.173,-2.698 -2.5063,-5.531 -1,-8.5c2.9299,-0.799 5.9299,-1.132 9,-1zm-5,1c-0.709,0.904 -1.709,1.237 -3,1c0,2 0,4 0,6c2.6667,1.333 5.3333,1.333 8,0c0.8147,-4.333 -0.852,-6.666 -5,-7z" fill="#ffffff"/>
  </g>
  <g id="svg_129">
   <path id="svg_130" d="m150.5,244.5c0,5.667 0,11.333 0,17c1,0 2,0 3,0c-0.165,-3.35 0.002,-6.683 0.5,-10c1.158,-0.498 1.991,-1.331 2.5,-2.5c-0.914,-1.406 -1.58,-2.906 -2,-4.5c1,0.667 2,1.333 3,2c0.83,2.324 2.163,4.324 4,6c1.901,-1.506 3.568,-3.173 5,-5c0,1 0,2 0,3c1,0 2,0 3,0c0,3.667 0,7.333 0,11c1,0 2,0 3,0c0,0.333 0,0.667 0,1c-1.333,0 -2.667,0 -4,0c0.32,-3.398 -0.013,-6.732 -1,-10c-1.788,0.783 -2.788,2.116 -3,4c-1.89,2.502 -3.89,2.502 -6,0c-0.212,-1.884 -1.212,-3.217 -3,-4c-0.987,3.268 -1.32,6.602 -1,10c-1.667,0 -3.333,0 -5,0c-0.323,-6.19 0.01,-12.19 1,-18z" fill="#ffffff"/>
  </g>
  <g id="svg_131">
   <path id="svg_132" d="m150.5,244.5c1.333,0 2.667,0 4,0c0.42,1.594 1.086,3.094 2,4.5c-0.509,1.169 -1.342,2.002 -2.5,2.5c-0.498,3.317 -0.665,6.65 -0.5,10c-1,0 -2,0 -3,0c0,-5.667 0,-11.333 0,-17z" fill="#ffffff"/>
  </g>
  <g id="svg_133">
   <path id="svg_134" opacity="0.042" d="m316.5,244.5c-3.794,3.493 -4.961,7.826 -3.5,13c5.865,5.945 12.365,6.612 19.5,2c0.617,-0.111 1.117,-0.444 1.5,-1c0.755,-3.755 0.589,-7.422 -0.5,-11c0,-0.333 0,-0.667 0,-1c0.617,0.111 1.117,0.444 1.5,1c0.667,4 0.667,8 0,12c-0.833,0.833 -1.667,1.667 -2.5,2.5c-5.553,1.57 -11.219,1.903 -17,1c-3.634,-2.028 -5.3,-5.194 -5,-9.5c-0.518,-4.883 1.482,-7.883 6,-9zm6,5c-0.709,0.904 -1.709,1.237 -3,1c0,2 0,4 0,6c2.667,1.333 5.333,1.333 8,0c1.013,-4.313 -0.654,-6.646 -5,-7z" fill="#ffffff"/>
  </g>
  <g id="svg_135">
   <path id="svg_136" opacity="0.02" d="m318.5,248.5c3.018,-0.165 6.018,0.002 9,0.5c3.642,8.04 0.975,11.04 -8,9c-2.25,-2.928 -2.584,-6.094 -1,-9.5zm4,1c-0.709,0.904 -1.709,1.237 -3,1c0,2 0,4 0,6c2.667,1.333 5.333,1.333 8,0c1.013,-4.313 -0.654,-6.646 -5,-7z" fill="#ffffff"/>
  </g>
  <g id="svg_137">
   <path id="svg_138" opacity="0.749" d="m331.5,246.5c0.667,0.333 1.333,0.667 2,1c1.089,3.578 1.255,7.245 0.5,11c-0.383,0.556 -0.883,0.889 -1.5,1c1.554,-4.543 1.221,-8.877 -1,-13z" fill="#ffffff"/>
  </g>
  <g id="svg_139">
   <path id="svg_140" opacity="0.533" d="m78.5,248.5c0.9959,-0.086 1.8292,0.248 2.5,1c0.7958,2.539 0.6291,4.872 -0.5,7c0.2174,-2.921 -0.4493,-5.587 -2,-8z" fill="#ffffff"/>
  </g>
  <g id="svg_141">
   <path id="svg_142" opacity="0.379" d="m99.5,252.5c-0.6667,3.333 -1.3333,6.667 -2,10c-0.3226,-3.726 0.0108,-7.393 1,-11c0.6067,0.124 0.94,0.457 1,1z" fill="#ffffff"/>
  </g>
  <g id="svg_143">
   <path id="svg_144" opacity="0.165" d="m99.5,252.5c2.414,1.411 4.081,3.411 5,6c-2.414,-1.411 -4.081,-3.411 -5,-6z" fill="#ffffff"/>
  </g>
  <g id="svg_145">
   <path id="svg_146" opacity="0.328" d="m158.5,256.5c-0.958,-0.453 -1.792,-1.119 -2.5,-2c-0.183,2.865 -0.683,5.531 -1.5,8c-0.32,-3.398 0.013,-6.732 1,-10c1.788,0.783 2.788,2.116 3,4z" fill="#ffffff"/>
  </g>
  <g id="svg_147">
   <path id="svg_148" opacity="0.304" d="m173.5,243.5c0.991,6.479 1.324,13.146 1,20c-2.559,0.302 -4.893,-0.032 -7,-1c0.164,-2.687 -0.003,-5.354 -0.5,-8c-0.708,0.881 -1.542,1.547 -2.5,2c0.212,-1.884 1.212,-3.217 3,-4c0.987,3.268 1.32,6.602 1,10c1.333,0 2.667,0 4,0c0.99,-6.145 1.323,-12.478 1,-19z" fill="#ffffff"/>
  </g>
  <g id="svg_149">
   <path id="svg_150" opacity="0.478" d="m212.5,255.5c2.559,-0.302 4.893,0.032 7,1c-2,0 -4,0 -6,0c0.295,2.235 -0.039,4.235 -1,6c0,-2.333 0,-4.667 0,-7z" fill="#ffffff"/>
  </g>
  <g id="svg_151">
   <path id="svg_152" opacity="0.029" d="m154.5,243.5c-1.599,-0.268 -2.932,0.066 -4,1c-0.99,5.81 -1.323,11.81 -1,18c1.667,0 3.333,0 5,0c0.817,-2.469 1.317,-5.135 1.5,-8c0.708,0.881 1.542,1.547 2.5,2c2.11,2.502 4.11,2.502 6,0c0.958,-0.453 1.792,-1.119 2.5,-2c0.497,2.646 0.664,5.313 0.5,8c-0.802,-1.452 -1.302,-3.118 -1.5,-5c-0.479,2.146 -1.812,3.146 -4,3c-2.305,0.016 -3.972,-0.984 -5,-3c-0.495,1.973 -0.662,3.973 -0.5,6c-3.211,0.488 -6.044,-0.179 -8.5,-2c-0.83,-6.028 -0.664,-12.028 0.5,-18c2.143,-1.254 4.143,-1.254 6,0z" fill="#ffffff"/>
  </g>
  <g id="svg_153">
   <path id="svg_154" opacity="0.047" d="m37.5,243.5c0,6.333 0,12.667 0,19c1.6667,0 3.3333,0 5,0c0,-1.333 0,-2.667 0,-4c3.2131,0.31 6.2131,-0.023 9,-1c1.871,-0.359 3.371,-1.359 4.5,-3c0.8184,-2.727 0.6517,-5.394 -0.5,-8c-0.6835,-0.363 -1.3501,-0.696 -2,-1c-0.3333,-0.667 -0.6667,-1.333 -1,-2c5.4866,1.638 7.3199,5.305 5.5,11c-0.5743,1.992 -1.741,3.492 -3.5,4.5c-3.3168,0.498 -6.6501,0.665 -10,0.5c0.17,1.322 -0.1634,2.489 -1,3.5c-2.5991,0.769 -5.0991,0.602 -7.5,-0.5c-0.1667,-3.167 -0.3333,-6.333 -0.5,-9.5c0.0152,-3.576 0.6818,-6.742 2,-9.5zm7,6c2.1648,-0.384 3.8315,0.283 5,2c-1.5453,0.952 -3.212,1.285 -5,1c0,-1 0,-2 0,-3z" fill="#ffffff"/>
  </g>
  <g id="svg_155">
   <path id="svg_156" opacity="0.999" d="m53.5,245.5c0.6499,0.304 1.3165,0.637 2,1c1.1517,2.606 1.3184,5.273 0.5,8c-1.129,1.641 -2.629,2.641 -4.5,3c-3.3333,0 -6.6667,0 -10,0c0,1.333 0,2.667 0,4c-1,0 -2,0 -3,0c0,-5.667 0,-11.333 0,-17c5.047,-0.163 10.047,0.171 15,1zm-9,4c0,1 0,2 0,3c1.788,0.285 3.4547,-0.048 5,-1c-1.1685,-1.717 -2.8352,-2.384 -5,-2z" fill="#ffffff"/>
  </g>
  <g id="svg_157">
   <path id="svg_158" opacity="0.632" d="m51.5,249.5c0.9511,1.419 1.2845,3.085 1,5c-3.5419,0.313 -6.8752,-0.021 -10,-1c3,0 6,0 9,0c0,-1.333 0,-2.667 0,-4z" fill="#ffffff"/>
  </g>
  <g id="svg_159">
   <path id="svg_160" opacity="0.2" d="m51.5,249.5c0,1.333 0,2.667 0,4c-3,0 -6,0 -9,0c0,-1.667 0,-3.333 0,-5c3.2131,-0.31 6.2131,0.023 9,1zm-7,0c0,1 0,2 0,3c1.788,0.285 3.4547,-0.048 5,-1c-1.1685,-1.717 -2.8352,-2.384 -5,-2z" fill="#ffffff"/>
  </g>
  <g id="svg_161">
   <path id="svg_162" opacity="0.055" d="m188.5,242.5c2.544,-0.396 4.711,0.271 6.5,2c3.648,5.951 6.148,12.284 7.5,19c-2.357,0.163 -4.69,-0.003 -7,-0.5c-3.333,-3.333 -6.667,-3.333 -10,0c-2.31,0.497 -4.643,0.663 -7,0.5c1.487,-7.97 4.82,-14.97 10,-21z" fill="#ffffff"/>
  </g>
  <g id="svg_163">
   <path id="svg_164" d="m187.5,244.5c2.292,-0.256 4.459,0.077 6.5,1c3.068,5.464 5.568,11.131 7.5,17c-1.667,0 -3.333,0 -5,0c0,-1 0,-2 0,-3c-4,0 -8,0 -12,0c0,1 0,2 0,3c-1.333,0 -2.667,0 -4,0c1.816,-6.283 4.149,-12.283 7,-18z" fill="#ffffff"/>
  </g>
  <g id="svg_165">
   <path id="svg_166" opacity="0.584" d="m188.5,252.5c1.052,1.756 2.719,2.423 5,2c-1.765,0.961 -3.765,1.295 -6,1c-0.237,-1.291 0.096,-2.291 1,-3z" fill="#ffffff"/>
  </g>
  <g id="svg_167">
   <path id="svg_168" opacity="0.024" d="m193.5,254.5c-2.281,0.423 -3.948,-0.244 -5,-2c2.665,-5.13 4.331,-4.463 5,2z" fill="#ffffff"/>
  </g>
  <g id="svg_169">
   <path id="svg_170" opacity="0.267" d="m259.5,243.5c-0.323,6.522 0.01,12.855 1,19c1.333,0 2.667,0 4,0c0.381,-3.619 1.381,-6.952 3,-10c2.575,2.819 4.908,5.819 7,9c1.765,0.961 3.765,1.295 6,1c0,-6.333 0,-12.667 0,-19c0.991,6.479 1.324,13.146 1,20c-2.687,0.164 -5.354,-0.003 -8,-0.5c-1.822,-2.821 -3.989,-5.321 -6.5,-7.5c-0.497,2.646 -0.664,5.313 -0.5,8c-2.667,0 -5.333,0 -8,0c-0.324,-6.854 0.009,-13.521 1,-20z" fill="#ffffff"/>
  </g>
  <g id="svg_171">
   <path id="svg_172" opacity="0.553" d="m267.5,252.5c-1.619,3.048 -2.619,6.381 -3,10c-0.324,-4.055 0.009,-8.055 1,-12c1.022,0.355 1.689,1.022 2,2z" fill="#ffffff"/>
  </g>
  <g id="svg_173">
   <path id="svg_174" opacity="0.662" d="m276.5,244.5c1.068,-0.934 2.401,-1.268 4,-1c0,6.333 0,12.667 0,19c-2.235,0.295 -4.235,-0.039 -6,-1c1.667,0 3.333,0 5,0c0,-5.667 0,-11.333 0,-17c-1,0 -2,0 -3,0z" fill="#ffffff"/>
  </g>
  <g id="svg_175">
   <path id="svg_176" d="m267.5,245.5c1.934,3.273 4.268,6.273 7,9c0.667,-3.477 1.334,-6.811 2,-10c1,0 2,0 3,0c0,5.667 0,11.333 0,17c-1.667,0 -3.333,0 -5,0c-2.092,-3.181 -4.425,-6.181 -7,-9c-0.311,-0.978 -0.978,-1.645 -2,-2c-0.991,3.945 -1.324,7.945 -1,12c-1.333,0 -2.667,0 -4,0c0,-6 0,-12 0,-18c2.45,-0.202 4.783,0.131 7,1z" fill="#ffffff"/>
  </g>
  <g id="svg_177">
   <path id="svg_178" opacity="0.059" d="m208.5,243.5c0,0.333 0,0.667 0,1c0,6 0,12 0,18c1.333,0 2.667,0 4,0c0.961,-1.765 1.295,-3.765 1,-6c2,0 4,0 6,0c2.039,1.411 3.039,3.411 3,6c3.991,0.628 5.324,-0.705 4,-4c4.452,3.059 3.952,4.726 -1.5,5c-3.592,-0.249 -6.092,-2.082 -7.5,-5.5c-0.948,-0.483 -1.948,-0.649 -3,-0.5c0,2 0,4 0,6c-2.667,0 -5.333,0 -8,0c-0.626,-7.084 0.041,-13.75 2,-20z" fill="#ffffff"/>
  </g>
  <g id="svg_179">
   <path id="svg_180" opacity="0.004" d="m288.5,243.5c-0.958,6.244 -1.291,12.577 -1,19c1.667,0 3.333,0 5,0c0,-2.667 0,-5.333 0,-8c4.55,0.697 7.883,3.197 10,7.5c1.444,0.781 2.777,0.614 4,-0.5c-1.82,-2.983 -3.82,-5.816 -6,-8.5c1.986,-2.656 3.986,-5.323 6,-8c-1.667,-0.667 -3.333,-0.667 -5,0c-2.174,3.37 -5.174,5.203 -9,5.5c0,-2.333 0,-4.667 0,-7c1.664,1.449 2.498,3.449 2.5,6c2.167,-2.167 4.333,-4.333 6.5,-6.5c2.269,-0.758 4.436,-0.591 6.5,0.5c0.667,1.333 0.667,2.667 0,4c-2.018,1.85 -3.851,3.85 -5.5,6c1.649,2.15 3.482,4.15 5.5,6c0.49,1.293 0.657,2.627 0.5,4c-2.687,0.164 -5.354,-0.003 -8,-0.5c-1.952,-2.074 -3.785,-4.241 -5.5,-6.5c0.619,6.549 -2.214,8.715 -8.5,6.5c-1.142,-6.084 -1.309,-12.251 -0.5,-18.5c0.671,-0.752 1.504,-1.086 2.5,-1z" fill="#ffffff"/>
  </g>
  <g id="svg_181">
   <path id="svg_182" opacity="0.082" d="m124.5,244.5c-0.333,0.667 -0.667,1.333 -1,2c-1.25,0.077 -2.083,0.744 -2.5,2c-0.808,3.527 -0.641,6.86 0.5,10c5.017,4.241 10.683,5.075 17,2.5c2.474,-2.041 3.474,-4.708 3,-8c0.512,-3.263 -0.488,-5.763 -3,-7.5c0,-0.333 0,-0.667 0,-1c4.14,1.424 6.14,4.424 6,9c-0.813,7.805 -5.146,11.139 -13,10c-10.356,0.982 -14.523,-3.685 -12.5,-14c0.752,-2.921 2.585,-4.587 5.5,-5zm6,5c4.346,0.354 6.013,2.687 5,7c-3.073,1.638 -5.906,1.305 -8.5,-1c-1.076,-3.406 0.09,-5.406 3.5,-6z" fill="#ffffff"/>
  </g>
  <g id="svg_183">
   <path id="svg_184" opacity="0.812" d="m123.5,246.5c-1.643,3.795 -2.309,7.795 -2,12c-0.309,-4.205 0.357,-8.205 2,-12z" fill="#ffffff"/>
  </g>
  <g id="svg_185">
   <path id="svg_186" d="m124.5,244.5c4.73,-0.217 9.397,0.117 14,1c2.512,1.737 3.512,4.237 3,7.5c0.474,3.292 -0.526,5.959 -3,8c-6.317,2.575 -11.983,1.741 -17,-2.5c-0.309,-4.205 0.357,-8.205 2,-12c0.333,-0.667 0.667,-1.333 1,-2zm6,5c-3.41,0.594 -4.576,2.594 -3.5,6c2.594,2.305 5.427,2.638 8.5,1c1.013,-4.313 -0.654,-6.646 -5,-7z" fill="#ffffff"/>
  </g>
  <g id="svg_187">
   <path id="svg_188" opacity="0.157" d="m126.5,248.5c3.018,-0.165 6.018,0.002 9,0.5c3.642,8.04 0.975,11.04 -8,9c-2.25,-2.928 -2.584,-6.094 -1,-9.5zm4,1c-3.41,0.594 -4.576,2.594 -3.5,6c2.594,2.305 5.427,2.638 8.5,1c1.013,-4.313 -0.654,-6.646 -5,-7z" fill="#ffffff"/>
  </g>
  <g id="svg_189">
   <path id="svg_190" opacity="0.835" d="m235.5,244.5c0.333,0 0.667,0 1,0c0,5.667 0,11.333 0,17c5.375,0.328 10.708,-0.005 16,-1c-4.482,-0.667 -8.816,-1.334 -13,-2c4.667,0 9.333,0 14,0c0,1.333 0,2.667 0,4c-6,0 -12,0 -18,0c0,-6 0,-12 0,-18z" fill="#ffffff"/>
  </g>
  <g id="svg_191">
   <path id="svg_192" opacity="0.305" d="m71.5,244.5c2.4479,-0.973 5.1146,-1.306 8,-1c5.9683,0.639 8.6349,3.973 8,10c0.4628,4.833 -1.5372,7.999 -6,9.5c-4.8522,0.815 -9.5189,0.648 -14,-0.5c-0.3333,-0.667 -0.6667,-1.333 -1,-2c13.84,5.282 19.84,0.782 18,-13.5c-4.0458,-2.174 -8.3791,-3.007 -13,-2.5z" fill="#ffffff"/>
  </g>
  <g id="svg_193">
   <path id="svg_194" opacity="0.302" d="m249.5,254.5c-2.858,0.666 -5.858,1.333 -9,2c0.124,0.607 0.457,0.94 1,1c4.333,0 8.667,0 13,0c0,2 0,4 0,6c-6.333,0 -12.667,0 -19,0c0,-0.333 0,-0.667 0,-1c6,0 12,0 18,0c0,-1.333 0,-2.667 0,-4c-4.667,0 -9.333,0 -14,0c0,-1.333 0,-2.667 0,-4c3.333,0 6.667,0 10,0z" fill="#ffffff"/>
  </g>
  <g id="svg_195">
   <path id="svg_196" opacity="0.204" d="m229.5,287.5c-28.838,0.331 -57.505,-0.002 -86,-1c-0.904,-0.709 -1.237,-1.709 -1,-3c29.164,-1.164 58.497,-1.33 88,-0.5c1.543,2.045 1.21,3.545 -1,4.5z" fill="#ffffff"/>
  </g>
  <g id="svg_197">
   <path id="svg_198" opacity="0.663" d="m143.5,284.5c28.495,-0.998 57.162,-1.331 86,-1c0.237,1.291 -0.096,2.291 -1,3c-27.98,-1.992 -56.314,-2.658 -85,-2z" fill="#ffffff"/>
  </g>
  <g id="svg_199">
   <path id="svg_200" opacity="0.953" d="m143.5,284.5c28.686,-0.658 57.02,0.008 85,2c-28.333,0 -56.667,0 -85,0c0,-0.667 0,-1.333 0,-2z" fill="#ffffff"/>
  </g>
  <g id="svg_201">
   <path id="svg_202" opacity="0.037" d="m142.5,283.5c-0.237,1.291 0.096,2.291 1,3c28.495,0.998 57.162,1.331 86,1c-28.83,1.164 -57.83,1.33 -87,0.5c-1.301,-1.616 -1.301,-3.116 0,-4.5z" fill="#ffffff"/>
  </g>
 </g>
</svg>