<?xml version="1.0" encoding="UTF-8"?>
<!DOCTYPE svg PUBLIC "-//W3C//DTD SVG 1.1//EN" "http://www.w3.org/Graphics/SVG/1.1/DTD/svg11.dtd">
<svg xmlns="http://www.w3.org/2000/svg" version="1.1" width="373px" height="318px" style="shape-rendering:geometricPrecision; text-rendering:geometricPrecision; image-rendering:optimizeQuality; fill-rule:evenodd; clip-rule:evenodd" xmlns:xlink="http://www.w3.org/1999/xlink">
<g><path style="opacity:0.722" fill="#787878" d="M 171.5,26.5 C 171.5,26.1667 171.5,25.8333 171.5,25.5C 177.617,25.5152 183.617,26.1818 189.5,27.5C 190.5,28.1667 191.5,28.8333 192.5,29.5C 185.486,28.5933 178.486,27.5933 171.5,26.5 Z"/></g>
<g><path style="opacity:1" fill="#010101" d="M 171.5,26.5 C 178.486,27.5933 185.486,28.5933 192.5,29.5C 197.5,30.1667 202.5,30.8333 207.5,31.5C 210.568,31.5467 213.568,32.0467 216.5,33C 218.88,36.2576 221.38,39.4242 224,42.5C 225.429,49.7194 225.929,57.0528 225.5,64.5C 234.807,65.6865 244.14,66.6865 253.5,67.5C 253.47,78.0292 254.137,88.3625 255.5,98.5C 256.509,116.674 257.842,134.674 259.5,152.5C 259.5,153.5 259.5,154.5 259.5,155.5C 259.428,165.699 260.095,175.699 261.5,185.5C 261.986,193.158 262.32,200.825 262.5,208.5C 262.5,211.5 262.5,214.5 262.5,217.5C 220.167,217.5 177.833,217.5 135.5,217.5C 135.813,213.958 135.479,210.625 134.5,207.5C 134.167,202.833 133.833,198.167 133.5,193.5C 133.109,178.835 132.775,164.168 132.5,149.5C 132.666,140.161 132.5,130.827 132,121.5C 131.819,118.305 131.319,115.305 130.5,112.5C 130.07,92.4891 129.403,72.4891 128.5,52.5C 129.833,52.5 131.167,52.5 132.5,52.5C 139.279,53.9833 146.279,54.65 153.5,54.5C 153.334,48.8236 153.501,43.1569 154,37.5C 156.833,34.6667 159.667,31.8333 162.5,29C 163.332,28.3123 163.998,28.479 164.5,29.5C 163.479,31.188 162.145,32.5213 160.5,33.5C 159.508,40.9818 159.175,48.6484 159.5,56.5C 160.791,56.7373 161.791,56.404 162.5,55.5C 162.175,48.3134 162.509,41.3134 163.5,34.5C 167.167,32.8333 169.833,30.1667 171.5,26.5 Z M 174.5,43.5 C 177.391,44.4025 180.391,44.7359 183.5,44.5C 190.841,46.9337 198.508,48.2671 206.5,48.5C 206.5,52.5 206.5,56.5 206.5,60.5C 205.5,60.5 204.5,60.5 203.5,60.5C 194.562,59.0913 185.562,58.0913 176.5,57.5C 174.652,53.1464 173.985,48.4797 174.5,43.5 Z"/></g>
<g><path style="opacity:0.416" fill="#9f9f9f" d="M 189.5,27.5 C 194.595,27.7615 199.595,28.4282 204.5,29.5C 205.5,30.1667 206.5,30.8333 207.5,31.5C 202.5,30.8333 197.5,30.1667 192.5,29.5C 191.5,28.8333 190.5,28.1667 189.5,27.5 Z"/></g>
<g><path style="opacity:0.239" fill="#b5b5b5" d="M 171.5,25.5 C 171.5,25.8333 171.5,26.1667 171.5,26.5C 168.5,28.8333 165.833,31.5 163.5,34.5C 162.509,41.3134 162.175,48.3134 162.5,55.5C 160.537,48.5762 159.87,41.2428 160.5,33.5C 162.145,32.5213 163.479,31.188 164.5,29.5C 163.998,28.479 163.332,28.3123 162.5,29C 159.667,31.8333 156.833,34.6667 154,37.5C 153.501,43.1569 153.334,48.8236 153.5,54.5C 146.279,54.65 139.279,53.9833 132.5,52.5C 134.833,52.5 137.167,52.5 139.5,52.5C 143.869,52.4672 148.202,52.8005 152.5,53.5C 148.974,37.1707 155.307,27.8374 171.5,25.5 Z"/></g>
<g><path style="opacity:0.894" fill="#363636" d="M 171.5,26.5 C 169.833,30.1667 167.167,32.8333 163.5,34.5C 165.833,31.5 168.5,28.8333 171.5,26.5 Z"/></g>
<g><path style="opacity:0.766" fill="#444444" d="M 160.5,33.5 C 159.87,41.2428 160.537,48.5762 162.5,55.5C 161.791,56.404 160.791,56.7373 159.5,56.5C 159.175,48.6484 159.508,40.9818 160.5,33.5 Z"/></g>
<g><path style="opacity:0.407" fill="#868686" d="M 192.5,40.5 C 190.801,40.3398 189.134,40.5065 187.5,41C 188.737,41.2321 189.737,41.7321 190.5,42.5C 185.989,41.9745 181.489,41.3078 177,40.5C 176.167,40.8333 175.333,41.1667 174.5,41.5C 174.833,41.8333 175.167,42.1667 175.5,42.5C 178.64,43.0894 181.64,43.7561 184.5,44.5C 184.167,44.5 183.833,44.5 183.5,44.5C 180.391,44.7359 177.391,44.4025 174.5,43.5C 172.564,47.7147 171.897,52.3814 172.5,57.5C 171.509,51.021 171.176,44.3543 171.5,37.5C 178.731,37.8473 185.731,38.8473 192.5,40.5 Z"/></g>
<g><path style="opacity:1" fill="#525252" d="M 195.5,40.5 C 200.414,40.3618 205.081,41.0285 209.5,42.5C 204.586,42.6382 199.919,41.9715 195.5,40.5 Z"/></g>
<g><path style="opacity:1" fill="#b8b8b8" d="M 192.5,40.5 C 193.5,40.5 194.5,40.5 195.5,40.5C 199.919,41.9715 204.586,42.6382 209.5,42.5C 211.379,43.3414 213.379,43.6747 215.5,43.5C 215.672,44.4916 215.338,45.1583 214.5,45.5C 206.478,44.6639 198.478,43.6639 190.5,42.5C 189.737,41.7321 188.737,41.2321 187.5,41C 189.134,40.5065 190.801,40.3398 192.5,40.5 Z"/></g>
<g><path style="opacity:0.021" fill="#e9e9e9" d="M 174.5,43.5 C 173.985,48.4797 174.652,53.1464 176.5,57.5C 175.833,57.5 175.167,57.5 174.5,57.5C 173.833,57.5 173.167,57.5 172.5,57.5C 171.897,52.3814 172.564,47.7147 174.5,43.5 Z"/></g>
<g><path style="opacity:0.263" fill="#c1c1c1" d="M 204.5,29.5 C 208.534,29.6721 212.534,30.1721 216.5,31C 219.333,34.5 222.167,38 225,41.5C 226.255,48.0594 226.922,54.726 227,61.5C 227.5,62 228,62.5 228.5,63C 234.871,63.726 241.205,64.5593 247.5,65.5C 249.5,66.1667 251.5,66.8333 253.5,67.5C 244.14,66.6865 234.807,65.6865 225.5,64.5C 225.929,57.0528 225.429,49.7194 224,42.5C 221.38,39.4242 218.88,36.2576 216.5,33C 213.568,32.0467 210.568,31.5467 207.5,31.5C 206.5,30.8333 205.5,30.1667 204.5,29.5 Z"/></g>
<g><path style="opacity:0.102" fill="#d0d0d0" d="M 183.5,44.5 C 183.833,44.5 184.167,44.5 184.5,44.5C 192.142,45.6975 199.808,46.6975 207.5,47.5C 207.5,52.1667 207.5,56.8333 207.5,61.5C 206.167,61.5 204.833,61.5 203.5,61.5C 203.5,61.1667 203.5,60.8333 203.5,60.5C 204.5,60.5 205.5,60.5 206.5,60.5C 206.5,56.5 206.5,52.5 206.5,48.5C 198.508,48.2671 190.841,46.9337 183.5,44.5 Z"/></g>
<g><path style="opacity:0.025" fill="#e0e0e0" d="M 139.5,52.5 C 137.167,52.5 134.833,52.5 132.5,52.5C 131.167,52.5 129.833,52.5 128.5,52.5C 127.833,53.8333 127.167,55.1667 126.5,56.5C 123.833,56.5 121.167,56.5 118.5,56.5C 118.167,56.5 117.833,56.5 117.5,56.5C 119.988,54.6122 122.988,53.9455 126.5,54.5C 126.147,52.3652 126.98,51.0319 129,50.5C 132.654,51.0624 136.154,51.729 139.5,52.5 Z"/></g>
<g><path style="opacity:0.384" fill="#969696" d="M 215.5,43.5 C 216.817,49.6783 216.817,56.0117 215.5,62.5C 214.505,56.8722 214.171,51.2055 214.5,45.5C 215.338,45.1583 215.672,44.4916 215.5,43.5 Z"/></g>
<g><path style="opacity:0.649" fill="#555555" d="M 207.5,47.5 C 208.487,52.3054 208.821,57.3054 208.5,62.5C 206.585,62.7845 204.919,62.4511 203.5,61.5C 204.833,61.5 206.167,61.5 207.5,61.5C 207.5,56.8333 207.5,52.1667 207.5,47.5 Z"/></g>
<g><path style="opacity:1" fill="#090909" d="M 118.5,56.5 C 121.167,56.5 123.833,56.5 126.5,56.5C 127.648,98.0115 129.315,139.345 131.5,180.5C 131.5,192.833 131.5,205.167 131.5,217.5C 124.167,217.5 116.833,217.5 109.5,217.5C 109.833,206.167 110.167,194.833 110.5,183.5C 110.5,182.167 110.5,180.833 110.5,179.5C 111.302,178.048 111.802,176.382 112,174.5C 112.5,167.508 112.666,160.508 112.5,153.5C 112.547,141.645 113.214,129.978 114.5,118.5C 115.513,111.011 116.18,103.344 116.5,95.5C 116.5,90.1667 116.5,84.8333 116.5,79.5C 116.5,79.1667 116.5,78.8333 116.5,78.5C 117.538,71.3469 118.204,64.0136 118.5,56.5 Z"/></g>
<g><path style="opacity:0.78" fill="#717171" d="M 174.5,57.5 C 175.167,57.5 175.833,57.5 176.5,57.5C 185.562,58.0913 194.562,59.0913 203.5,60.5C 203.5,60.8333 203.5,61.1667 203.5,61.5C 194.815,60.924 186.148,60.0907 177.5,59C 176.263,58.7679 175.263,58.2679 174.5,57.5 Z"/></g>
<g><path style="opacity:0.027" fill="#f4f4f4" d="M 247.5,65.5 C 250.388,64.9898 252.721,65.6565 254.5,67.5C 254.167,67.5 253.833,67.5 253.5,67.5C 251.5,66.8333 249.5,66.1667 247.5,65.5 Z"/></g>
<g><path style="opacity:0.337" fill="#9b9b9b" d="M 117.5,56.5 C 117.833,56.5 118.167,56.5 118.5,56.5C 118.204,64.0136 117.538,71.3469 116.5,78.5C 116.377,71.4707 116.71,64.4707 117.5,57.5C 117.5,57.1667 117.5,56.8333 117.5,56.5 Z"/></g>
<g><path style="opacity:0.033" fill="#f1f1f1" d="M 117.5,57.5 C 116.71,64.4707 116.377,71.4707 116.5,78.5C 116.5,78.8333 116.5,79.1667 116.5,79.5C 115.487,86.9891 114.82,94.6558 114.5,102.5C 114.5,105.167 114.5,107.833 114.5,110.5C 114.167,110.5 113.833,110.5 113.5,110.5C 113.813,95.9866 114.48,81.4866 115.5,67C 115.515,63.4242 116.182,60.2575 117.5,57.5 Z"/></g>
<g><path style="opacity:0.82" fill="#7d7d7d" d="M 253.5,67.5 C 253.833,67.5 254.167,67.5 254.5,67.5C 255.487,72.3054 255.821,77.3054 255.5,82.5C 255.5,87.8333 255.5,93.1667 255.5,98.5C 254.137,88.3625 253.47,78.0292 253.5,67.5 Z"/></g>
<g><path style="opacity:0.573" fill="#999999" d="M 116.5,79.5 C 116.5,84.8333 116.5,90.1667 116.5,95.5C 115.833,97.8333 115.167,100.167 114.5,102.5C 114.82,94.6558 115.487,86.9891 116.5,79.5 Z"/></g>
<g><path style="opacity:0.361" fill="#c8c8c8" d="M 255.5,82.5 C 256.513,89.9891 257.18,97.6558 257.5,105.5C 256.833,103.167 256.167,100.833 255.5,98.5C 255.5,93.1667 255.5,87.8333 255.5,82.5 Z"/></g>
<g><path style="opacity:0.549" fill="#656565" d="M 116.5,95.5 C 116.18,103.344 115.513,111.011 114.5,118.5C 114.5,115.833 114.5,113.167 114.5,110.5C 114.5,107.833 114.5,105.167 114.5,102.5C 115.167,100.167 115.833,97.8333 116.5,95.5 Z"/></g>
<g><path style="opacity:0.467" fill="#969696" d="M 255.5,98.5 C 256.167,100.833 256.833,103.167 257.5,105.5C 258.143,113.15 258.477,120.817 258.5,128.5C 259.166,136.483 259.499,144.483 259.5,152.5C 257.842,134.674 256.509,116.674 255.5,98.5 Z"/></g>
<g><path style="opacity:0.836" fill="#3e3e3e" d="M 130.5,112.5 C 131.319,115.305 131.819,118.305 132,121.5C 132.5,130.827 132.666,140.161 132.5,149.5C 131.211,137.354 130.545,125.021 130.5,112.5 Z"/></g>
<g><path style="opacity:0.327" fill="#a9a9a9" d="M 128.5,52.5 C 129.403,72.4891 130.07,92.4891 130.5,112.5C 130.545,125.021 131.211,137.354 132.5,149.5C 132.775,164.168 133.109,178.835 133.5,193.5C 132.672,187.681 132.172,181.681 132,175.5C 131.506,177.134 131.34,178.801 131.5,180.5C 129.315,139.345 127.648,98.0115 126.5,56.5C 127.167,55.1667 127.833,53.8333 128.5,52.5 Z"/></g>
<g><path style="opacity:0.028" fill="#e3e3e3" d="M 258.5,128.5 C 259.988,134.266 260.822,140.266 261,146.5C 262.333,165.16 263.5,183.827 264.5,202.5C 264.167,202.5 263.833,202.5 263.5,202.5C 263.298,194.314 262.631,186.314 261.5,178.5C 261.251,170.65 260.584,162.983 259.5,155.5C 259.5,154.5 259.5,153.5 259.5,152.5C 259.499,144.483 259.166,136.483 258.5,128.5 Z"/></g>
<g><path style="opacity:0.208" fill="#d2d2d2" d="M 113.5,110.5 C 113.833,110.5 114.167,110.5 114.5,110.5C 114.5,113.167 114.5,115.833 114.5,118.5C 113.214,129.978 112.547,141.645 112.5,153.5C 110.928,161.949 110.261,170.616 110.5,179.5C 110.5,180.833 110.5,182.167 110.5,183.5C 109.487,190.989 108.82,198.656 108.5,206.5C 108.167,206.5 107.833,206.5 107.5,206.5C 109.157,174.327 111.157,142.327 113.5,110.5 Z"/></g>
<g><path style="opacity:0.894" fill="#474747" d="M 259.5,155.5 C 260.584,162.983 261.251,170.65 261.5,178.5C 261.5,180.833 261.5,183.167 261.5,185.5C 260.095,175.699 259.428,165.699 259.5,155.5 Z"/></g>
<g><path style="opacity:0.741" fill="#5b5b5b" d="M 112.5,153.5 C 112.666,160.508 112.5,167.508 112,174.5C 111.802,176.382 111.302,178.048 110.5,179.5C 110.261,170.616 110.928,161.949 112.5,153.5 Z"/></g>
<g><path style="opacity:0.757" fill="#6f6f6f" d="M 261.5,178.5 C 262.631,186.314 263.298,194.314 263.5,202.5C 263.5,204.5 263.5,206.5 263.5,208.5C 263.167,208.5 262.833,208.5 262.5,208.5C 262.32,200.825 261.986,193.158 261.5,185.5C 261.5,183.167 261.5,180.833 261.5,178.5 Z"/></g>
<g><path style="opacity:0.8" fill="#424242" d="M 110.5,183.5 C 110.167,194.833 109.833,206.167 109.5,217.5C 116.833,217.5 124.167,217.5 131.5,217.5C 124.018,218.492 116.352,218.825 108.5,218.5C 108.5,214.5 108.5,210.5 108.5,206.5C 108.82,198.656 109.487,190.989 110.5,183.5 Z"/></g>
<g><path style="opacity:0.295" fill="#afafaf" d="M 133.5,193.5 C 133.833,198.167 134.167,202.833 134.5,207.5C 134.5,211.167 134.5,214.833 134.5,218.5C 177.5,218.5 220.5,218.5 263.5,218.5C 263.5,215.167 263.5,211.833 263.5,208.5C 263.5,206.5 263.5,204.5 263.5,202.5C 263.833,202.5 264.167,202.5 264.5,202.5C 265.292,208.13 265.625,213.797 265.5,219.5C 212.5,219.5 159.5,219.5 106.5,219.5C 107.2,215.202 107.533,210.869 107.5,206.5C 107.833,206.5 108.167,206.5 108.5,206.5C 108.5,210.5 108.5,214.5 108.5,218.5C 116.352,218.825 124.018,218.492 131.5,217.5C 131.5,205.167 131.5,192.833 131.5,180.5C 131.34,178.801 131.506,177.134 132,175.5C 132.172,181.681 132.672,187.681 133.5,193.5 Z"/></g>
<g><path style="opacity:0.799" fill="#353535" d="M 134.5,207.5 C 135.479,210.625 135.813,213.958 135.5,217.5C 177.833,217.5 220.167,217.5 262.5,217.5C 262.5,214.5 262.5,211.5 262.5,208.5C 262.833,208.5 263.167,208.5 263.5,208.5C 263.5,211.833 263.5,215.167 263.5,218.5C 220.5,218.5 177.5,218.5 134.5,218.5C 134.5,214.833 134.5,211.167 134.5,207.5 Z"/></g>
<g><path style="opacity:0.02" fill="#eaeaea" d="M 79.5,243.5 C 76.6146,243.194 73.9479,243.527 71.5,244.5C 70.1667,244.5 68.8333,244.5 67.5,244.5C 69.4621,242.983 71.7954,242.316 74.5,242.5C 76.3693,242.507 78.036,242.84 79.5,243.5 Z"/></g>
<g><path style="opacity:0.587" fill="#adadad" d="M 138.5,244.5 C 138.5,244.833 138.5,245.167 138.5,245.5C 133.897,244.617 129.23,244.283 124.5,244.5C 126.462,242.983 128.795,242.316 131.5,242.5C 134.205,242.316 136.538,242.983 138.5,244.5 Z"/></g>
<g><path style="opacity:0.055" fill="#b8b8b8" d="M 150.5,244.5 C 151.568,243.566 152.901,243.232 154.5,243.5C 156.5,243.5 157.5,244.5 157.5,246.5C 156.5,245.833 155.5,245.167 154.5,244.5C 153.167,244.5 151.833,244.5 150.5,244.5 Z"/></g>
<g><path style="opacity:0.115" fill="#d5d5d5" d="M 107.5,243.5 C 107.815,247.371 107.482,251.038 106.5,254.5C 103.96,251.272 101.293,248.105 98.5,245C 96.8659,244.506 95.1992,244.34 93.5,244.5C 93.5,250.5 93.5,256.5 93.5,262.5C 94.8333,262.5 96.1667,262.5 97.5,262.5C 98.1667,259.167 98.8333,255.833 99.5,252.5C 100.419,255.089 102.086,257.089 104.5,258.5C 105.812,259.145 106.812,260.145 107.5,261.5C 109.045,262.452 110.712,262.785 112.5,262.5C 113.49,256.355 113.823,250.022 113.5,243.5C 114.491,249.979 114.824,256.646 114.5,263.5C 111.813,263.664 109.146,263.497 106.5,263C 104.333,260.833 102.167,258.667 100,256.5C 99.5034,258.81 99.3367,261.143 99.5,263.5C 96.8333,263.5 94.1667,263.5 91.5,263.5C 91.4728,256.814 91.1395,250.148 90.5,243.5C 93.1411,242.737 95.8078,242.57 98.5,243C 101.372,245.537 103.872,248.37 106,251.5C 106.183,248.635 106.683,245.969 107.5,243.5 Z"/></g>
<g><path style="opacity:0.094" fill="#b5b5b5" d="M 227.5,246.5 C 227.802,249.059 227.468,251.393 226.5,253.5C 226.663,251.143 226.497,248.81 226,246.5C 225.617,245.944 225.117,245.611 224.5,245.5C 219.36,244.512 214.026,244.179 208.5,244.5C 208.5,244.167 208.5,243.833 208.5,243.5C 213.316,242.35 218.316,242.184 223.5,243C 225.324,243.66 226.657,244.827 227.5,246.5 Z"/></g>
<g><path style="opacity:1" fill="#1b1b1b" d="M 67.5,244.5 C 68.8333,244.5 70.1667,244.5 71.5,244.5C 76.1209,243.993 80.4542,244.826 84.5,247C 86.34,261.282 80.34,265.782 66.5,260.5C 62.2712,254.89 62.6045,249.557 67.5,244.5 Z M 73.5,249.5 C 77.648,249.834 79.3147,252.167 78.5,256.5C 75.8333,257.833 73.1667,257.833 70.5,256.5C 70.5,254.5 70.5,252.5 70.5,250.5C 71.791,250.737 72.791,250.404 73.5,249.5 Z"/></g>
<g><path style="opacity:1" fill="#141414" d="M 106.5,254.5 C 106.56,255.043 106.893,255.376 107.5,255.5C 108.489,251.893 108.823,248.226 108.5,244.5C 109.833,244.5 111.167,244.5 112.5,244.5C 112.5,250.5 112.5,256.5 112.5,262.5C 110.712,262.785 109.045,262.452 107.5,261.5C 106.812,260.145 105.812,259.145 104.5,258.5C 103.581,255.911 101.914,253.911 99.5,252.5C 99.44,251.957 99.1067,251.624 98.5,251.5C 97.5108,255.107 97.1774,258.774 97.5,262.5C 96.1667,262.5 94.8333,262.5 93.5,262.5C 93.5,256.5 93.5,250.5 93.5,244.5C 95.1992,244.34 96.8659,244.506 98.5,245C 101.293,248.105 103.96,251.272 106.5,254.5 Z"/></g>
<g><path style="opacity:0.518" fill="#929292" d="M 113.5,243.5 C 113.823,250.022 113.49,256.355 112.5,262.5C 112.5,256.5 112.5,250.5 112.5,244.5C 111.167,244.5 109.833,244.5 108.5,244.5C 108.823,248.226 108.489,251.893 107.5,255.5C 106.893,255.376 106.56,255.043 106.5,254.5C 107.482,251.038 107.815,247.371 107.5,243.5C 109.611,242.258 111.611,242.258 113.5,243.5 Z"/></g>
<g><path style="opacity:1" fill="#080808" d="M 168.5,244.5 C 169.833,244.5 171.167,244.5 172.5,244.5C 172.5,250.167 172.5,255.833 172.5,261.5C 171.5,261.5 170.5,261.5 169.5,261.5C 169.5,257.833 169.5,254.167 169.5,250.5C 168.5,250.5 167.5,250.5 166.5,250.5C 166.5,249.5 166.5,248.5 166.5,247.5C 166.427,245.973 167.094,244.973 168.5,244.5 Z"/></g>
<g><path style="opacity:0.564" fill="#868686" d="M 173.5,243.5 C 173.823,250.022 173.49,256.355 172.5,262.5C 172.5,262.167 172.5,261.833 172.5,261.5C 172.5,255.833 172.5,250.167 172.5,244.5C 171.167,244.5 169.833,244.5 168.5,244.5C 168.5,244.167 168.5,243.833 168.5,243.5C 170.167,242.167 171.833,242.167 173.5,243.5 Z"/></g>
<g><path style="opacity:1" fill="#111111" d="M 224.5,245.5 C 225.117,245.611 225.617,245.944 226,246.5C 226.497,248.81 226.663,251.143 226.5,253.5C 225.645,254.531 224.978,255.697 224.5,257C 224.836,258.03 225.503,258.53 226.5,258.5C 227.824,261.795 226.491,263.128 222.5,262.5C 222.539,259.911 221.539,257.911 219.5,256.5C 217.393,255.532 215.059,255.198 212.5,255.5C 211.835,257.369 211.169,259.369 210.5,261.5C 209.505,256.208 209.172,250.875 209.5,245.5C 214.5,245.5 219.5,245.5 224.5,245.5 Z"/></g>
<g><path style="opacity:0.091" fill="#d9d9d9" d="M 253.5,243.5 C 247.31,243.177 241.31,243.51 235.5,244.5C 235.5,250.5 235.5,256.5 235.5,262.5C 235.5,262.833 235.5,263.167 235.5,263.5C 234.18,260.572 233.514,257.239 233.5,253.5C 233.667,250.167 233.833,246.833 234,243.5C 240.599,242.174 247.099,242.174 253.5,243.5 Z"/></g>
<g><path style="opacity:1" fill="#030303" d="M 236.5,244.5 C 241.833,244.5 247.167,244.5 252.5,244.5C 252.5,245.5 252.5,246.5 252.5,247.5C 248.167,247.5 243.833,247.5 239.5,247.5C 239.5,248.833 239.5,250.167 239.5,251.5C 242.833,251.5 246.167,251.5 249.5,251.5C 249.5,252.5 249.5,253.5 249.5,254.5C 246.167,254.5 242.833,254.5 239.5,254.5C 239.5,255.833 239.5,257.167 239.5,258.5C 243.684,259.166 248.018,259.833 252.5,260.5C 247.208,261.495 241.875,261.828 236.5,261.5C 236.5,255.833 236.5,250.167 236.5,244.5 Z"/></g>
<g><path style="opacity:0.323" fill="#aeaeae" d="M 267.5,245.5 C 265.283,244.631 262.95,244.298 260.5,244.5C 260.5,250.5 260.5,256.5 260.5,262.5C 259.51,256.355 259.177,250.022 259.5,243.5C 262.918,241.778 265.584,242.444 267.5,245.5 Z"/></g>
<g><path style="opacity:0.999" fill="#202020" d="M 292.5,243.5 C 292.5,245.833 292.5,248.167 292.5,250.5C 296.326,250.203 299.326,248.37 301.5,245C 303.167,244.333 304.833,244.333 306.5,245C 304.486,247.677 302.486,250.344 300.5,253C 302.68,255.684 304.68,258.517 306.5,261.5C 305.277,262.614 303.944,262.781 302.5,262C 300.383,257.697 297.05,255.197 292.5,254.5C 292.5,257.167 292.5,259.833 292.5,262.5C 290.833,262.5 289.167,262.5 287.5,262.5C 287.209,256.077 287.542,249.744 288.5,243.5C 289.833,242.167 291.167,242.167 292.5,243.5 Z"/></g>
<g><path style="opacity:1" fill="#1c1c1c" d="M 316.5,244.5 C 320.846,244.334 325.179,244.501 329.5,245C 330.044,245.717 330.711,246.217 331.5,246.5C 333.721,250.623 334.054,254.957 332.5,259.5C 325.365,264.112 318.865,263.445 313,257.5C 311.539,252.326 312.706,247.993 316.5,244.5 Z M 322.5,249.5 C 326.846,249.854 328.513,252.187 327.5,256.5C 324.833,257.833 322.167,257.833 319.5,256.5C 319.5,254.5 319.5,252.5 319.5,250.5C 320.791,250.737 321.791,250.404 322.5,249.5 Z"/></g>
<g><path style="opacity:0.66" fill="#797979" d="M 52.5,243.5 C 52.8333,244.167 53.1667,244.833 53.5,245.5C 48.547,244.671 43.547,244.337 38.5,244.5C 38.5,250.167 38.5,255.833 38.5,261.5C 39.5,261.5 40.5,261.5 41.5,261.5C 41.5,260.167 41.5,258.833 41.5,257.5C 44.8333,257.5 48.1667,257.5 51.5,257.5C 48.7131,258.477 45.7131,258.81 42.5,258.5C 42.5,259.833 42.5,261.167 42.5,262.5C 40.8333,262.5 39.1667,262.5 37.5,262.5C 37.5,256.167 37.5,249.833 37.5,243.5C 42.5999,242.2 47.5999,242.2 52.5,243.5 Z"/></g>
<g><path style="opacity:0.855" fill="#2b2b2b" d="M 208.5,244.5 C 214.026,244.179 219.36,244.512 224.5,245.5C 219.5,245.5 214.5,245.5 209.5,245.5C 209.172,250.875 209.505,256.208 210.5,261.5C 211.169,259.369 211.835,257.369 212.5,255.5C 212.5,257.833 212.5,260.167 212.5,262.5C 211.167,262.5 209.833,262.5 208.5,262.5C 208.5,256.5 208.5,250.5 208.5,244.5 Z"/></g>
<g><path style="opacity:0.373" fill="#b8b8b8" d="M 333.5,246.5 C 333.5,246.833 333.5,247.167 333.5,247.5C 332.833,247.167 332.167,246.833 331.5,246.5C 330.711,246.217 330.044,245.717 329.5,245C 325.179,244.501 320.846,244.334 316.5,244.5C 316.918,243.778 317.584,243.278 318.5,243C 321.833,242.333 325.167,242.333 328.5,243C 330.881,243.223 332.547,244.39 333.5,246.5 Z"/></g>
<g><path style="opacity:0.66" fill="#5d5d5d" d="M 78.5,248.5 C 75.4299,248.368 72.4299,248.701 69.5,249.5C 69.6107,248.883 69.944,248.383 70.5,248C 73.367,247.199 76.0336,247.366 78.5,248.5 Z"/></g>
<g><path style="opacity:0.659" fill="#5b5b5b" d="M 221.5,248.5 C 218.833,248.5 216.167,248.5 213.5,248.5C 213.5,249.5 213.5,250.5 213.5,251.5C 212.566,250.432 212.232,249.099 212.5,247.5C 215.713,247.19 218.713,247.523 221.5,248.5 Z"/></g>
<g><path style="opacity:0.653" fill="#5e5e5e" d="M 235.5,244.5 C 241.31,243.51 247.31,243.177 253.5,243.5C 253.5,245.167 253.5,246.833 253.5,248.5C 249.116,248.174 244.783,248.508 240.5,249.5C 243.768,250.487 247.102,250.82 250.5,250.5C 250.768,252.099 250.434,253.432 249.5,254.5C 249.5,253.5 249.5,252.5 249.5,251.5C 246.167,251.5 242.833,251.5 239.5,251.5C 239.5,250.167 239.5,248.833 239.5,247.5C 243.833,247.5 248.167,247.5 252.5,247.5C 252.5,246.5 252.5,245.5 252.5,244.5C 247.167,244.5 241.833,244.5 236.5,244.5C 236.167,244.5 235.833,244.5 235.5,244.5 Z"/></g>
<g><path style="opacity:0.195" fill="#d6d6d6" d="M 253.5,243.5 C 254.461,245.265 254.795,247.265 254.5,249.5C 253.448,249.351 252.448,249.517 251.5,250C 251.784,251.956 251.784,254.123 251.5,256.5C 247.958,256.187 244.625,256.521 241.5,257.5C 240.957,257.44 240.624,257.107 240.5,256.5C 243.642,255.833 246.642,255.166 249.5,254.5C 250.434,253.432 250.768,252.099 250.5,250.5C 247.102,250.82 243.768,250.487 240.5,249.5C 244.783,248.508 249.116,248.174 253.5,248.5C 253.5,246.833 253.5,245.167 253.5,243.5 Z"/></g>
<g><path style="opacity:0.239" fill="#d3d3d3" d="M 280.5,243.5 C 278.901,243.232 277.568,243.566 276.5,244.5C 275.834,247.689 275.167,251.023 274.5,254.5C 271.768,251.773 269.434,248.773 267.5,245.5C 269.463,246.96 271.296,248.627 273,250.5C 273.186,248.1 273.686,245.766 274.5,243.5C 276.643,242.246 278.643,242.246 280.5,243.5 Z"/></g>
<g><path style="opacity:0.118" fill="#dddddd" d="M 227.5,246.5 C 228.156,247.622 228.489,248.955 228.5,250.5C 228.294,253.336 227.627,256.002 226.5,258.5C 225.503,258.53 224.836,258.03 224.5,257C 224.978,255.697 225.645,254.531 226.5,253.5C 227.468,251.393 227.802,249.059 227.5,246.5 Z"/></g>
<g><path style="opacity:0.009" fill="#e6e6e6" d="M 67.5,244.5 C 62.6045,249.557 62.2712,254.89 66.5,260.5C 66.8333,261.167 67.1667,261.833 67.5,262.5C 63.7961,260.79 61.7961,257.79 61.5,253.5C 61.8417,251.133 62.3417,248.8 63,246.5C 64.3297,245.418 65.8297,244.751 67.5,244.5 Z"/></g>
<g><path style="opacity:0.039" fill="#d9d9d9" d="M 168.5,243.5 C 168.5,243.833 168.5,244.167 168.5,244.5C 167.094,244.973 166.427,245.973 166.5,247.5C 165.068,249.327 163.401,250.994 161.5,252.5C 159.663,250.824 158.33,248.824 157.5,246.5C 159.145,247.479 160.479,248.812 161.5,250.5C 162.861,248.972 164.028,247.305 165,245.5C 165.816,244.177 166.983,243.511 168.5,243.5 Z"/></g>
<g><path style="opacity:0.193" fill="#c3c3c3" d="M 221.5,248.5 C 222.404,249.209 222.737,250.209 222.5,251.5C 219.5,251.5 216.5,251.5 213.5,251.5C 213.5,250.5 213.5,249.5 213.5,248.5C 216.167,248.5 218.833,248.5 221.5,248.5 Z"/></g>
<g><path style="opacity:0.021" fill="#cfcfcf" d="M 78.5,248.5 C 80.0507,250.913 80.7174,253.579 80.5,256.5C 77.482,258.463 74.1487,258.963 70.5,258C 68.327,255.302 67.9937,252.469 69.5,249.5C 72.4299,248.701 75.4299,248.368 78.5,248.5 Z M 73.5,249.5 C 72.791,250.404 71.791,250.737 70.5,250.5C 70.5,252.5 70.5,254.5 70.5,256.5C 73.1667,257.833 75.8333,257.833 78.5,256.5C 79.3147,252.167 77.648,249.834 73.5,249.5 Z"/></g>
<g><path style="opacity:1" fill="#2f2f2f" d="M 150.5,244.5 C 150.5,250.167 150.5,255.833 150.5,261.5C 151.5,261.5 152.5,261.5 153.5,261.5C 153.335,258.15 153.502,254.817 154,251.5C 155.158,251.002 155.991,250.169 156.5,249C 155.586,247.594 154.92,246.094 154.5,244.5C 155.5,245.167 156.5,245.833 157.5,246.5C 158.33,248.824 159.663,250.824 161.5,252.5C 163.401,250.994 165.068,249.327 166.5,247.5C 166.5,248.5 166.5,249.5 166.5,250.5C 167.5,250.5 168.5,250.5 169.5,250.5C 169.5,254.167 169.5,257.833 169.5,261.5C 170.5,261.5 171.5,261.5 172.5,261.5C 172.5,261.833 172.5,262.167 172.5,262.5C 171.167,262.5 169.833,262.5 168.5,262.5C 168.82,259.102 168.487,255.768 167.5,252.5C 165.712,253.283 164.712,254.616 164.5,256.5C 162.61,259.002 160.61,259.002 158.5,256.5C 158.288,254.616 157.288,253.283 155.5,252.5C 154.513,255.768 154.18,259.102 154.5,262.5C 152.833,262.5 151.167,262.5 149.5,262.5C 149.177,256.31 149.51,250.31 150.5,244.5 Z"/></g>
<g><path style="opacity:1" fill="#040404" d="M 150.5,244.5 C 151.833,244.5 153.167,244.5 154.5,244.5C 154.92,246.094 155.586,247.594 156.5,249C 155.991,250.169 155.158,251.002 154,251.5C 153.502,254.817 153.335,258.15 153.5,261.5C 152.5,261.5 151.5,261.5 150.5,261.5C 150.5,255.833 150.5,250.167 150.5,244.5 Z"/></g>
<g><path style="opacity:0.042" fill="#d6d6d6" d="M 316.5,244.5 C 312.706,247.993 311.539,252.326 313,257.5C 318.865,263.445 325.365,264.112 332.5,259.5C 333.117,259.389 333.617,259.056 334,258.5C 334.755,254.745 334.589,251.078 333.5,247.5C 333.5,247.167 333.5,246.833 333.5,246.5C 334.117,246.611 334.617,246.944 335,247.5C 335.667,251.5 335.667,255.5 335,259.5C 334.167,260.333 333.333,261.167 332.5,262C 326.947,263.57 321.281,263.903 315.5,263C 311.866,260.972 310.2,257.806 310.5,253.5C 309.982,248.617 311.982,245.617 316.5,244.5 Z M 322.5,249.5 C 321.791,250.404 320.791,250.737 319.5,250.5C 319.5,252.5 319.5,254.5 319.5,256.5C 322.167,257.833 324.833,257.833 327.5,256.5C 328.513,252.187 326.846,249.854 322.5,249.5 Z"/></g>
<g><path style="opacity:0.02" fill="#d3d3d3" d="M 318.5,248.5 C 321.518,248.335 324.518,248.502 327.5,249C 331.142,257.04 328.475,260.04 319.5,258C 317.25,255.072 316.916,251.906 318.5,248.5 Z M 322.5,249.5 C 321.791,250.404 320.791,250.737 319.5,250.5C 319.5,252.5 319.5,254.5 319.5,256.5C 322.167,257.833 324.833,257.833 327.5,256.5C 328.513,252.187 326.846,249.854 322.5,249.5 Z"/></g>
<g><path style="opacity:0.749" fill="#575757" d="M 331.5,246.5 C 332.167,246.833 332.833,247.167 333.5,247.5C 334.589,251.078 334.755,254.745 334,258.5C 333.617,259.056 333.117,259.389 332.5,259.5C 334.054,254.957 333.721,250.623 331.5,246.5 Z"/></g>
<g><path style="opacity:0.533" fill="#737373" d="M 78.5,248.5 C 79.4959,248.414 80.3292,248.748 81,249.5C 81.7958,252.039 81.6291,254.372 80.5,256.5C 80.7174,253.579 80.0507,250.913 78.5,248.5 Z"/></g>
<g><path style="opacity:0.379" fill="#9c9c9c" d="M 99.5,252.5 C 98.8333,255.833 98.1667,259.167 97.5,262.5C 97.1774,258.774 97.5108,255.107 98.5,251.5C 99.1067,251.624 99.44,251.957 99.5,252.5 Z"/></g>
<g><path style="opacity:0.165" fill="#9e9e9e" d="M 99.5,252.5 C 101.914,253.911 103.581,255.911 104.5,258.5C 102.086,257.089 100.419,255.089 99.5,252.5 Z"/></g>
<g><path style="opacity:0.328" fill="#a3a3a3" d="M 158.5,256.5 C 157.542,256.047 156.708,255.381 156,254.5C 155.817,257.365 155.317,260.031 154.5,262.5C 154.18,259.102 154.513,255.768 155.5,252.5C 157.288,253.283 158.288,254.616 158.5,256.5 Z"/></g>
<g><path style="opacity:0.304" fill="#bdbdbd" d="M 173.5,243.5 C 174.491,249.979 174.824,256.646 174.5,263.5C 171.941,263.802 169.607,263.468 167.5,262.5C 167.664,259.813 167.497,257.146 167,254.5C 166.292,255.381 165.458,256.047 164.5,256.5C 164.712,254.616 165.712,253.283 167.5,252.5C 168.487,255.768 168.82,259.102 168.5,262.5C 169.833,262.5 171.167,262.5 172.5,262.5C 173.49,256.355 173.823,250.022 173.5,243.5 Z"/></g>
<g><path style="opacity:0.478" fill="#808080" d="M 212.5,255.5 C 215.059,255.198 217.393,255.532 219.5,256.5C 217.5,256.5 215.5,256.5 213.5,256.5C 213.795,258.735 213.461,260.735 212.5,262.5C 212.5,260.167 212.5,257.833 212.5,255.5 Z"/></g>
<g><path style="opacity:0.029" fill="#e4e4e4" d="M 154.5,243.5 C 152.901,243.232 151.568,243.566 150.5,244.5C 149.51,250.31 149.177,256.31 149.5,262.5C 151.167,262.5 152.833,262.5 154.5,262.5C 155.317,260.031 155.817,257.365 156,254.5C 156.708,255.381 157.542,256.047 158.5,256.5C 160.61,259.002 162.61,259.002 164.5,256.5C 165.458,256.047 166.292,255.381 167,254.5C 167.497,257.146 167.664,259.813 167.5,262.5C 166.698,261.048 166.198,259.382 166,257.5C 165.521,259.646 164.188,260.646 162,260.5C 159.695,260.516 158.028,259.516 157,257.5C 156.505,259.473 156.338,261.473 156.5,263.5C 153.289,263.988 150.456,263.321 148,261.5C 147.17,255.472 147.336,249.472 148.5,243.5C 150.643,242.246 152.643,242.246 154.5,243.5 Z"/></g>
<g><path style="opacity:0.047" fill="#d7d7d7" d="M 37.5,243.5 C 37.5,249.833 37.5,256.167 37.5,262.5C 39.1667,262.5 40.8333,262.5 42.5,262.5C 42.5,261.167 42.5,259.833 42.5,258.5C 45.7131,258.81 48.7131,258.477 51.5,257.5C 53.371,257.141 54.871,256.141 56,254.5C 56.8184,251.773 56.6517,249.106 55.5,246.5C 54.8165,246.137 54.1499,245.804 53.5,245.5C 53.1667,244.833 52.8333,244.167 52.5,243.5C 57.9866,245.138 59.8199,248.805 58,254.5C 57.4257,256.492 56.259,257.992 54.5,259C 51.1832,259.498 47.8499,259.665 44.5,259.5C 44.67,260.822 44.3366,261.989 43.5,263C 40.9009,263.769 38.4009,263.602 36,262.5C 35.8333,259.333 35.6667,256.167 35.5,253C 35.5152,249.424 36.1818,246.258 37.5,243.5 Z M 44.5,249.5 C 46.6648,249.116 48.3315,249.783 49.5,251.5C 47.9547,252.452 46.288,252.785 44.5,252.5C 44.5,251.5 44.5,250.5 44.5,249.5 Z"/></g>
<g><path style="opacity:0.999" fill="#131313" d="M 53.5,245.5 C 54.1499,245.804 54.8165,246.137 55.5,246.5C 56.6517,249.106 56.8184,251.773 56,254.5C 54.871,256.141 53.371,257.141 51.5,257.5C 48.1667,257.5 44.8333,257.5 41.5,257.5C 41.5,258.833 41.5,260.167 41.5,261.5C 40.5,261.5 39.5,261.5 38.5,261.5C 38.5,255.833 38.5,250.167 38.5,244.5C 43.547,244.337 48.547,244.671 53.5,245.5 Z M 44.5,249.5 C 44.5,250.5 44.5,251.5 44.5,252.5C 46.288,252.785 47.9547,252.452 49.5,251.5C 48.3315,249.783 46.6648,249.116 44.5,249.5 Z"/></g>
<g><path style="opacity:0.632" fill="#505050" d="M 51.5,249.5 C 52.4511,250.919 52.7845,252.585 52.5,254.5C 48.9581,254.813 45.6248,254.479 42.5,253.5C 45.5,253.5 48.5,253.5 51.5,253.5C 51.5,252.167 51.5,250.833 51.5,249.5 Z"/></g>
<g><path style="opacity:0.2" fill="#d1d1d1" d="M 51.5,249.5 C 51.5,250.833 51.5,252.167 51.5,253.5C 48.5,253.5 45.5,253.5 42.5,253.5C 42.5,251.833 42.5,250.167 42.5,248.5C 45.7131,248.19 48.7131,248.523 51.5,249.5 Z M 44.5,249.5 C 44.5,250.5 44.5,251.5 44.5,252.5C 46.288,252.785 47.9547,252.452 49.5,251.5C 48.3315,249.783 46.6648,249.116 44.5,249.5 Z"/></g>
<g><path style="opacity:0.055" fill="#d2d2d2" d="M 188.5,242.5 C 191.044,242.104 193.211,242.771 195,244.5C 198.648,250.451 201.148,256.784 202.5,263.5C 200.143,263.663 197.81,263.497 195.5,263C 192.167,259.667 188.833,259.667 185.5,263C 183.19,263.497 180.857,263.663 178.5,263.5C 179.987,255.53 183.32,248.53 188.5,242.5 Z"/></g>
<g><path style="opacity:1" fill="#1c1c1c" d="M 187.5,244.5 C 189.792,244.244 191.959,244.577 194,245.5C 197.068,250.964 199.568,256.631 201.5,262.5C 199.833,262.5 198.167,262.5 196.5,262.5C 196.5,261.5 196.5,260.5 196.5,259.5C 192.5,259.5 188.5,259.5 184.5,259.5C 184.5,260.5 184.5,261.5 184.5,262.5C 183.167,262.5 181.833,262.5 180.5,262.5C 182.316,256.217 184.649,250.217 187.5,244.5 Z"/></g>
<g><path style="opacity:0.584" fill="#626262" d="M 188.5,252.5 C 189.552,254.256 191.219,254.923 193.5,254.5C 191.735,255.461 189.735,255.795 187.5,255.5C 187.263,254.209 187.596,253.209 188.5,252.5 Z"/></g>
<g><path style="opacity:0.024" fill="#c0c0c0" d="M 193.5,254.5 C 191.219,254.923 189.552,254.256 188.5,252.5C 191.165,247.37 192.831,248.037 193.5,254.5 Z"/></g>
<g><path style="opacity:0.267" fill="#d4d4d4" d="M 259.5,243.5 C 259.177,250.022 259.51,256.355 260.5,262.5C 261.833,262.5 263.167,262.5 264.5,262.5C 264.881,258.881 265.881,255.548 267.5,252.5C 270.075,255.319 272.408,258.319 274.5,261.5C 276.265,262.461 278.265,262.795 280.5,262.5C 280.5,256.167 280.5,249.833 280.5,243.5C 281.491,249.979 281.824,256.646 281.5,263.5C 278.813,263.664 276.146,263.497 273.5,263C 271.678,260.179 269.511,257.679 267,255.5C 266.503,258.146 266.336,260.813 266.5,263.5C 263.833,263.5 261.167,263.5 258.5,263.5C 258.176,256.646 258.509,249.979 259.5,243.5 Z"/></g>
<g><path style="opacity:0.553" fill="#707070" d="M 267.5,252.5 C 265.881,255.548 264.881,258.881 264.5,262.5C 264.176,258.445 264.509,254.445 265.5,250.5C 266.522,250.855 267.189,251.522 267.5,252.5 Z"/></g>
<g><path style="opacity:0.662" fill="#5c5c5c" d="M 276.5,244.5 C 277.568,243.566 278.901,243.232 280.5,243.5C 280.5,249.833 280.5,256.167 280.5,262.5C 278.265,262.795 276.265,262.461 274.5,261.5C 276.167,261.5 277.833,261.5 279.5,261.5C 279.5,255.833 279.5,250.167 279.5,244.5C 278.5,244.5 277.5,244.5 276.5,244.5 Z"/></g>
<g><path style="opacity:1" fill="#161616" d="M 267.5,245.5 C 269.434,248.773 271.768,251.773 274.5,254.5C 275.167,251.023 275.834,247.689 276.5,244.5C 277.5,244.5 278.5,244.5 279.5,244.5C 279.5,250.167 279.5,255.833 279.5,261.5C 277.833,261.5 276.167,261.5 274.5,261.5C 272.408,258.319 270.075,255.319 267.5,252.5C 267.189,251.522 266.522,250.855 265.5,250.5C 264.509,254.445 264.176,258.445 264.5,262.5C 263.167,262.5 261.833,262.5 260.5,262.5C 260.5,256.5 260.5,250.5 260.5,244.5C 262.95,244.298 265.283,244.631 267.5,245.5 Z"/></g>
<g><path style="opacity:0.059" fill="#cfcfcf" d="M 208.5,243.5 C 208.5,243.833 208.5,244.167 208.5,244.5C 208.5,250.5 208.5,256.5 208.5,262.5C 209.833,262.5 211.167,262.5 212.5,262.5C 213.461,260.735 213.795,258.735 213.5,256.5C 215.5,256.5 217.5,256.5 219.5,256.5C 221.539,257.911 222.539,259.911 222.5,262.5C 226.491,263.128 227.824,261.795 226.5,258.5C 230.952,261.559 230.452,263.226 225,263.5C 221.408,263.251 218.908,261.418 217.5,258C 216.552,257.517 215.552,257.351 214.5,257.5C 214.5,259.5 214.5,261.5 214.5,263.5C 211.833,263.5 209.167,263.5 206.5,263.5C 205.874,256.416 206.541,249.75 208.5,243.5 Z"/></g>
<g><path style="opacity:0.004" fill="#d2d2d2" d="M 288.5,243.5 C 287.542,249.744 287.209,256.077 287.5,262.5C 289.167,262.5 290.833,262.5 292.5,262.5C 292.5,259.833 292.5,257.167 292.5,254.5C 297.05,255.197 300.383,257.697 302.5,262C 303.944,262.781 305.277,262.614 306.5,261.5C 304.68,258.517 302.68,255.684 300.5,253C 302.486,250.344 304.486,247.677 306.5,245C 304.833,244.333 303.167,244.333 301.5,245C 299.326,248.37 296.326,250.203 292.5,250.5C 292.5,248.167 292.5,245.833 292.5,243.5C 294.164,244.949 294.998,246.949 295,249.5C 297.167,247.333 299.333,245.167 301.5,243C 303.769,242.242 305.936,242.409 308,243.5C 308.667,244.833 308.667,246.167 308,247.5C 305.982,249.35 304.149,251.35 302.5,253.5C 304.149,255.65 305.982,257.65 308,259.5C 308.49,260.793 308.657,262.127 308.5,263.5C 305.813,263.664 303.146,263.497 300.5,263C 298.548,260.926 296.715,258.759 295,256.5C 295.619,263.049 292.786,265.215 286.5,263C 285.358,256.916 285.191,250.749 286,244.5C 286.671,243.748 287.504,243.414 288.5,243.5 Z"/></g>
<g><path style="opacity:0.082" fill="#c9c9c9" d="M 124.5,244.5 C 124.167,245.167 123.833,245.833 123.5,246.5C 122.25,246.577 121.417,247.244 121,248.5C 120.192,252.027 120.359,255.36 121.5,258.5C 126.517,262.741 132.183,263.575 138.5,261C 140.974,258.959 141.974,256.292 141.5,253C 142.012,249.737 141.012,247.237 138.5,245.5C 138.5,245.167 138.5,244.833 138.5,244.5C 142.64,245.924 144.64,248.924 144.5,253.5C 143.687,261.305 139.354,264.639 131.5,263.5C 121.144,264.482 116.977,259.815 119,249.5C 119.752,246.579 121.585,244.913 124.5,244.5 Z M 130.5,249.5 C 134.846,249.854 136.513,252.187 135.5,256.5C 132.427,258.138 129.594,257.805 127,255.5C 125.924,252.094 127.09,250.094 130.5,249.5 Z"/></g>
<g><path style="opacity:0.812" fill="#464646" d="M 123.5,246.5 C 121.857,250.295 121.191,254.295 121.5,258.5C 121.191,254.295 121.857,250.295 123.5,246.5 Z"/></g>
<g><path style="opacity:1" fill="#1a1a1a" d="M 124.5,244.5 C 129.23,244.283 133.897,244.617 138.5,245.5C 141.012,247.237 142.012,249.737 141.5,253C 141.974,256.292 140.974,258.959 138.5,261C 132.183,263.575 126.517,262.741 121.5,258.5C 121.191,254.295 121.857,250.295 123.5,246.5C 123.833,245.833 124.167,245.167 124.5,244.5 Z M 130.5,249.5 C 127.09,250.094 125.924,252.094 127,255.5C 129.594,257.805 132.427,258.138 135.5,256.5C 136.513,252.187 134.846,249.854 130.5,249.5 Z"/></g>
<g><path style="opacity:0.157" fill="#cbcbcb" d="M 126.5,248.5 C 129.518,248.335 132.518,248.502 135.5,249C 139.142,257.04 136.475,260.04 127.5,258C 125.25,255.072 124.916,251.906 126.5,248.5 Z M 130.5,249.5 C 127.09,250.094 125.924,252.094 127,255.5C 129.594,257.805 132.427,258.138 135.5,256.5C 136.513,252.187 134.846,249.854 130.5,249.5 Z"/></g>
<g><path style="opacity:0.835" fill="#323232" d="M 235.5,244.5 C 235.833,244.5 236.167,244.5 236.5,244.5C 236.5,250.167 236.5,255.833 236.5,261.5C 241.875,261.828 247.208,261.495 252.5,260.5C 248.018,259.833 243.684,259.166 239.5,258.5C 244.167,258.5 248.833,258.5 253.5,258.5C 253.5,259.833 253.5,261.167 253.5,262.5C 247.5,262.5 241.5,262.5 235.5,262.5C 235.5,256.5 235.5,250.5 235.5,244.5 Z"/></g>
<g><path style="opacity:0.305" fill="#c1c1c1" d="M 71.5,244.5 C 73.9479,243.527 76.6146,243.194 79.5,243.5C 85.4683,244.139 88.1349,247.473 87.5,253.5C 87.9628,258.333 85.9628,261.499 81.5,263C 76.6478,263.815 71.9811,263.648 67.5,262.5C 67.1667,261.833 66.8333,261.167 66.5,260.5C 80.34,265.782 86.34,261.282 84.5,247C 80.4542,244.826 76.1209,243.993 71.5,244.5 Z"/></g>
<g><path style="opacity:0.302" fill="#afafaf" d="M 249.5,254.5 C 246.642,255.166 243.642,255.833 240.5,256.5C 240.624,257.107 240.957,257.44 241.5,257.5C 245.833,257.5 250.167,257.5 254.5,257.5C 254.5,259.5 254.5,261.5 254.5,263.5C 248.167,263.5 241.833,263.5 235.5,263.5C 235.5,263.167 235.5,262.833 235.5,262.5C 241.5,262.5 247.5,262.5 253.5,262.5C 253.5,261.167 253.5,259.833 253.5,258.5C 248.833,258.5 244.167,258.5 239.5,258.5C 239.5,257.167 239.5,255.833 239.5,254.5C 242.833,254.5 246.167,254.5 249.5,254.5 Z"/></g>
<g><path style="opacity:0.204" fill="#bfbfbf" d="M 229.5,287.5 C 200.662,287.831 171.995,287.498 143.5,286.5C 142.596,285.791 142.263,284.791 142.5,283.5C 171.664,282.336 200.997,282.17 230.5,283C 232.043,285.045 231.71,286.545 229.5,287.5 Z"/></g>
<g><path style="opacity:0.663" fill="#585858" d="M 143.5,284.5 C 171.995,283.502 200.662,283.169 229.5,283.5C 229.737,284.791 229.404,285.791 228.5,286.5C 200.52,284.508 172.186,283.842 143.5,284.5 Z"/></g>
<g><path style="opacity:0.953" fill="#131313" d="M 143.5,284.5 C 172.186,283.842 200.52,284.508 228.5,286.5C 200.167,286.5 171.833,286.5 143.5,286.5C 143.5,285.833 143.5,285.167 143.5,284.5 Z"/></g>
<g><path style="opacity:0.037" fill="#f3f3f3" d="M 142.5,283.5 C 142.263,284.791 142.596,285.791 143.5,286.5C 171.995,287.498 200.662,287.831 229.5,287.5C 200.67,288.664 171.67,288.83 142.5,288C 141.199,286.384 141.199,284.884 142.5,283.5 Z"/></g>
</svg>
